<svg xmlns="http://www.w3.org/2000/svg" viewBox="0 0 24 24" fill="currentColor">
  <path fill-rule="evenodd" clip-rule="evenodd"
    d="M7.65169 17.7753C7.5456 17.9192 7.40171 18 7.25167 18L6.68595 18C6.53592 18 6.39203 17.9192 6.28593 17.7753C6.17984 17.6315 6.12024 17.4364 6.12024 17.233L6.12024 6.49479C6.12024 6.29137 6.17984 6.09627 6.28593 5.95243C6.39203 5.80859 6.53592 5.72778 6.68596 5.72778L7.25167 5.72778C7.40171 5.72778 7.5456 5.80859 7.65169 5.95243C7.75778 6.09627 7.81738 6.29137 7.81738 6.49479L7.81738 10.3021L15.9031 5.90328C16.8459 5.39076 17.9992 6.06517 17.9992 7.12901L18 16.5991C18 17.6637 16.8467 18.3374 15.9038 17.8249L7.81738 13.426L7.81738 17.233C7.81738 17.4364 7.75778 17.6315 7.65169 17.7753Z" />
</svg>