<svg xmlns="http://www.w3.org/2000/svg" width="24" height="24" viewBox="0 0 24 24" fill="currentColor">
  <path fill-rule="evenodd" clip-rule="evenodd"
    d="M8.09616 6.17707C7.1533 5.65887 6 6.33999 6 7.41636L6.00075 16.9913C6.00075 18.0669 7.15406 18.7487 8.09691 18.2306L16.1826 13.783V17.6325C16.1826 17.8382 16.2422 18.0354 16.3483 18.1809C16.4544 18.3263 16.5983 18.408 16.7483 18.408H17.314C17.4641 18.408 17.608 18.3263 17.7141 18.1809C17.8202 18.0354 17.8798 17.8382 17.8798 17.6325V6.7755C17.8798 6.56982 17.8202 6.37257 17.7141 6.22714C17.608 6.0817 17.4641 6 17.314 6H16.7483C16.5983 6 16.4544 6.0817 16.3483 6.22714C16.2422 6.37257 16.1826 6.56982 16.1826 6.7755V10.6246L8.09616 6.17707Z" />
</svg>