<?xml version="1.0" encoding="UTF-8"?>
<svg id="Layer_2" xmlns="http://www.w3.org/2000/svg" viewBox="0 0 193 193">
  <defs>
    <style>
      .cls-1 {
        fill: #fff;
      }

      .cls-2 {
        stroke: #000;
        stroke-miterlimit: 10;
      }
    </style>
  </defs>
  <g id="Layer_2-2" data-name="Layer_2">
    <rect class="cls-2" x=".5" y=".5" width="192" height="192"/>
    <g id="Layer_4">
      <path d="M38.86.5h115.28c21.17,0,38.36,17.19,38.36,38.36v115.28c0,21.17-17.19,38.36-38.36,38.36H38.86c-21.17,0-38.36-17.19-38.36-38.36V38.86C.5,17.69,17.69.5,38.86.5Z"/>
      <g id="Layer_2-2">
        <g id="Layer_1-2">
          <g>
            <path class="cls-1" d="M149.77,86.45c2.51-1.07,5.02-1.63,7.67-1.65,6.88-.07,12.06,2.85,15.88,8.53,4.22,6.28,3.64,13.52-.69,19.52-4.42,6.13-8.91,12.23-13.46,18.24-2.7,3.58-5.81,6.73-10.01,8.57-3.66,1.59-7.37,1.67-11.06.21-5.4-2.12-10.74-4.41-16.2-6.45-4.95-1.86-10.16-2.77-15.38-3.43-1.41-.19-2.83-.3-4.2-.64-2.66-.64-4.59-3.15-4.59-5.87V55.83c0-4.67,4.26-9.04,8.91-8.93,11.4.24,21.9,3.36,30.88,10.65,6.11,4.95,9.75,11.49,11.53,19.11.73,3.15.99,6.34.71,9.75v.04h.02Z"/>
            <path class="cls-1" d="M50.06,141.89c-2.81-.15-4.59-1.01-5.83-2.79-8.7-12.41-17.42-24.84-26.1-37.26-2.25-3.21-1.54-6.84,1.69-9.13,1.87-1.33,3.77-2.64,5.64-3.98.99-.69,1.39-.64,2.08.38,10.56,15.09,21.15,30.17,31.71,45.26.84,1.18.77,1.44-.41,2.29-1.87,1.33-3.71,2.74-5.66,3.94-1.13.69-2.42,1.07-3.11,1.35h0v-.06ZM51.67,129.44c0-.9-.69-1.61-1.57-1.65-.9-.04-1.69.73-1.69,1.63s.68,1.59,1.57,1.63c.96.04,1.67-.67,1.69-1.61h0ZM42.09,115.72c0-.94-.75-1.63-1.71-1.59-.9.04-1.57.73-1.56,1.63,0,.9.71,1.61,1.59,1.63.9,0,1.67-.77,1.67-1.67h0ZM34.14,114.74c-.88,0-1.59.67-1.63,1.58-.04.96.64,1.67,1.59,1.69.9,0,1.63-.66,1.67-1.56.04-.86-.77-1.71-1.63-1.71h0ZM32.53,101.99c-.02-.94-.79-1.59-1.78-1.54-.92.04-1.56.77-1.48,1.69.04.86.86,1.61,1.69,1.56s1.59-.88,1.57-1.71h0ZM24.48,104.38c.88,0,1.71-.79,1.69-1.65,0-.86-.75-1.59-1.63-1.61-.92,0-1.61.64-1.63,1.54-.04.96.64,1.71,1.58,1.73h0ZM45.35,130.08c0-.84-.82-1.63-1.63-1.63s-1.65.79-1.63,1.71c.04.92.71,1.56,1.67,1.54.92,0,1.61-.71,1.59-1.61ZM35.62,110.49c.96,0,1.61-.62,1.63-1.56,0-.96-.71-1.73-1.63-1.71-.84,0-1.61.83-1.63,1.65,0,.9.69,1.59,1.61,1.59h.02v.02ZM30.91,109.62c.02-.96-.56-1.63-1.5-1.67s-1.76.69-1.76,1.59.75,1.61,1.63,1.63c.92,0,1.59-.64,1.63-1.58h0v.02ZM38.75,124.91c.82.08,1.61-.54,1.71-1.39.13-.96-.43-1.73-1.31-1.86-1.01-.13-1.86.49-1.93,1.46-.06.83.66,1.67,1.5,1.76h.02l.02.02ZM46.85,122.6c0-.92-.68-1.61-1.59-1.63-.94,0-1.67.71-1.65,1.65,0,.92.71,1.59,1.63,1.58.92,0,1.61-.67,1.61-1.61h0v.02Z"/>
            <path class="cls-1" d="M80.6,52.04c1.16,1.48,2.34,2.96,3.51,4.46.84,1.07,1.56,2.27,2.51,3.19,1.59,1.54,1.8,3.43,1.91,5.44.19,3.34.49,6.69.75,10.03.23,3.07.43,6.15.68,9.23.24,3.3.51,6.62.75,9.94.23,3.07.45,6.15.68,9.22.24,3.3.51,6.62.75,9.94.15,1.91.32,3.86.41,5.77.02.45-.21.92-.32,1.37-.68,2.31-1.35,4.59-2.04,6.9-.07.24-.32.45-.49.67-.15-.23-.38-.45-.41-.69-.34-2.51-.66-5.04-.96-7.54-.45-3.58-.88-7.18-1.31-10.76-.37-3.06-.75-6.09-1.14-9.15-.39-3.08-.77-6.19-1.16-9.26-.38-3.02-.73-6.04-1.09-9.07-.43-3.52-.86-7.05-1.29-10.59-.37-2.96-.77-5.89-1.14-8.85-.38-3.07-.73-6.19-1.07-9.28-.04-.28.06-.56.07-.88.13-.02.24-.04.34-.06h.02l.06-.02Z"/>
            <path class="cls-1" d="M81.16,129.2c-.13-.3-.28-.6-.38-.9-2.74-10.89-5.44-21.79-8.16-32.66-3.17-12.66-6.32-25.33-9.45-37.99-.13-.47-.06-.99-.07-1.48.43.28.9.51,1.24.86,2.29,2.27,4.56,4.59,6.82,6.84.64.62,1.01,1.26,1.18,2.14,1.76,9.11,3.54,18.21,5.34,27.3,1.59,8.08,3.11,16.18,4.86,24.21.56,2.62.15,5.1-.24,7.61-.17,1.07-.34,2.12-.54,3.21-.06.3-.19.6-.28.88h-.34.02v-.02Z"/>
            <path class="cls-1" d="M47.13,62.75c1.42,1.14,2.85,2.27,4.26,3.41,1.61,1.31,3.23,2.59,4.82,3.92.32.28.64.71.77,1.13,5.51,16.8,10.99,33.58,16.43,50.42.32,1.01.21,2.19.21,3.3,0,1.63-.09,3.26-.21,4.88-.02.34-.26.69-.41,1.03-.23-.28-.54-.54-.68-.88-5.76-14.92-11.48-29.87-17.21-44.81-2.7-7.03-5.4-14.04-8.1-21.07-.15-.38-.15-.79-.22-1.2l.34-.15h0l.02.04Z"/>
            <path class="cls-1" d="M65,132.97s-.09.3-.26.34c-.15.04-.41-.13-.54-.28-.17-.21-.24-.47-.39-.71-10.44-19.61-20.87-39.23-31.31-58.84-.09-.19-.22-.34-.26-.54-.04-.17-.06-.43.04-.52s.39-.07.53-.02c.32.17.64.39.96.6,2.81,1.84,5.62,3.66,8.4,5.53.43.28.84.71,1.03,1.16,6.97,14.96,13.95,29.96,20.85,44.96.45.98.47,2.16.56,3.26.17,1.61.24,3.24.38,5.08h.02l.02-.02Z"/>
          </g>
          <g>
            <path class="cls-1" d="M149.77,86.45c2.51-1.07,5.02-1.63,7.67-1.65,6.88-.07,12.06,2.85,15.88,8.53,4.22,6.28,3.64,13.52-.69,19.52-4.42,6.13-8.91,12.23-13.46,18.24-2.7,3.58-5.81,6.73-10.01,8.57-3.66,1.59-7.37,1.67-11.06.21-5.4-2.12-10.74-4.41-16.2-6.45-4.95-1.86-10.16-2.77-15.38-3.43-1.41-.19-2.83-.3-4.2-.64-2.66-.64-4.59-3.15-4.59-5.87V55.83c0-4.67,4.26-9.04,8.91-8.93,11.4.24,21.9,3.36,30.88,10.65,6.11,4.95,9.75,11.49,11.53,19.11.73,3.15.99,6.34.71,9.75v.04h.02Z"/>
            <path class="cls-1" d="M50.06,141.89c-2.81-.15-4.59-1.01-5.83-2.79-8.7-12.41-17.42-24.84-26.1-37.26-2.25-3.21-1.54-6.84,1.69-9.13,1.87-1.33,3.77-2.64,5.64-3.98.99-.69,1.39-.64,2.08.38,10.56,15.09,21.15,30.17,31.71,45.26.84,1.18.77,1.44-.41,2.29-1.87,1.33-3.71,2.74-5.66,3.94-1.13.69-2.42,1.07-3.11,1.35h0v-.06ZM51.67,129.44c0-.9-.69-1.61-1.57-1.65-.9-.04-1.69.73-1.69,1.63s.68,1.59,1.57,1.63c.96.04,1.67-.67,1.69-1.61h0ZM42.09,115.72c0-.94-.75-1.63-1.71-1.59-.9.04-1.57.73-1.56,1.63,0,.9.71,1.61,1.59,1.63.9,0,1.67-.77,1.67-1.67h0ZM34.14,114.74c-.88,0-1.59.67-1.63,1.58-.04.96.64,1.67,1.59,1.69.9,0,1.63-.66,1.67-1.56.04-.86-.77-1.71-1.63-1.71h0ZM32.53,101.99c-.02-.94-.79-1.59-1.78-1.54-.92.04-1.56.77-1.48,1.69.04.86.86,1.61,1.69,1.56s1.59-.88,1.57-1.71h0ZM24.48,104.38c.88,0,1.71-.79,1.69-1.65,0-.86-.75-1.59-1.63-1.61-.92,0-1.61.64-1.63,1.54-.04.96.64,1.71,1.58,1.73h0ZM45.35,130.08c0-.84-.82-1.63-1.63-1.63s-1.65.79-1.63,1.71c.04.92.71,1.56,1.67,1.54.92,0,1.61-.71,1.59-1.61ZM35.62,110.49c.96,0,1.61-.62,1.63-1.56,0-.96-.71-1.73-1.63-1.71-.84,0-1.61.83-1.63,1.65,0,.9.69,1.59,1.61,1.59h.02v.02ZM30.91,109.62c.02-.96-.56-1.63-1.5-1.67s-1.76.69-1.76,1.59.75,1.61,1.63,1.63c.92,0,1.59-.64,1.63-1.58h0v.02ZM38.75,124.91c.82.08,1.61-.54,1.71-1.39.13-.96-.43-1.73-1.31-1.86-1.01-.13-1.86.49-1.93,1.46-.06.83.66,1.67,1.5,1.76h.02l.02.02ZM46.85,122.6c0-.92-.68-1.61-1.59-1.63-.94,0-1.67.71-1.65,1.65,0,.92.71,1.59,1.63,1.58.92,0,1.61-.67,1.61-1.61h0v.02Z"/>
            <path class="cls-1" d="M80.6,52.04c1.16,1.48,2.34,2.96,3.51,4.46.84,1.07,1.56,2.27,2.51,3.19,1.59,1.54,1.8,3.43,1.91,5.44.19,3.34.49,6.69.75,10.03.23,3.07.43,6.15.68,9.23.24,3.3.51,6.62.75,9.94.23,3.07.45,6.15.68,9.22.24,3.3.51,6.62.75,9.94.15,1.91.32,3.86.41,5.77.02.45-.21.92-.32,1.37-.68,2.31-1.35,4.59-2.04,6.9-.07.24-.32.45-.49.67-.15-.23-.38-.45-.41-.69-.34-2.51-.66-5.04-.96-7.54-.45-3.58-.88-7.18-1.31-10.76-.37-3.06-.75-6.09-1.14-9.15-.39-3.08-.77-6.19-1.16-9.26-.38-3.02-.73-6.04-1.09-9.07-.43-3.52-.86-7.05-1.29-10.59-.37-2.96-.77-5.89-1.14-8.85-.38-3.07-.73-6.19-1.07-9.28-.04-.28.06-.56.07-.88.13-.02.24-.04.34-.06h.02l.06-.02Z"/>
            <path class="cls-1" d="M81.16,129.2c-.13-.3-.28-.6-.38-.9-2.74-10.89-5.44-21.79-8.16-32.66-3.17-12.66-6.32-25.33-9.45-37.99-.13-.47-.06-.99-.07-1.48.43.28.9.51,1.24.86,2.29,2.27,4.56,4.59,6.82,6.84.64.62,1.01,1.26,1.18,2.14,1.76,9.11,3.54,18.21,5.34,27.3,1.59,8.08,3.11,16.18,4.86,24.21.56,2.62.15,5.1-.24,7.61-.17,1.07-.34,2.12-.54,3.21-.06.3-.19.6-.28.88h-.34.02v-.02Z"/>
            <path class="cls-1" d="M47.13,62.75c1.42,1.14,2.85,2.27,4.26,3.41,1.61,1.31,3.23,2.59,4.82,3.92.32.28.64.71.77,1.13,5.51,16.8,10.99,33.58,16.43,50.42.32,1.01.21,2.19.21,3.3,0,1.63-.09,3.26-.21,4.88-.02.34-.26.69-.41,1.03-.23-.28-.54-.54-.68-.88-5.76-14.92-11.48-29.87-17.21-44.81-2.7-7.03-5.4-14.04-8.1-21.07-.15-.38-.15-.79-.22-1.2l.34-.15h0l.02.04Z"/>
            <path class="cls-1" d="M65,132.97s-.09.3-.26.34c-.15.04-.41-.13-.54-.28-.17-.21-.24-.47-.39-.71-10.44-19.61-20.87-39.23-31.31-58.84-.09-.19-.22-.34-.26-.54-.04-.17-.06-.43.04-.52s.39-.07.53-.02c.32.17.64.39.96.6,2.81,1.84,5.62,3.66,8.4,5.53.43.28.84.71,1.03,1.16,6.97,14.96,13.95,29.96,20.85,44.96.45.98.47,2.16.56,3.26.17,1.61.24,3.24.38,5.08h.02l.02-.02Z"/>
          </g>
        </g>
      </g>
    </g>
  </g>
</svg>