<?xml version="1.0" encoding="UTF-8"?>
<svg id="Layer_2" xmlns="http://www.w3.org/2000/svg" viewBox="0 0 193 193">
  <defs>
    <style>
      .cls-1 {
        fill: #fff;
      }

      .cls-2 {
        stroke: #000;
        stroke-miterlimit: 10;
      }
    </style>
  </defs>
  <g id="Layer_4">
    <rect class="cls-2" x=".5" y=".5" width="192" height="192"/>
    <g id="Layer_4-2" data-name="Layer_4">
      <g id="Layer_2-2">
        <g id="Layer_1-2">
          <g>
            <path class="cls-1" d="M139.12,88.04c2.01-.86,4.02-1.3,6.14-1.32,5.5-.06,9.65,2.28,12.7,6.82,3.38,5.02,2.91,10.82-.55,15.62-3.54,4.9-7.13,9.78-10.77,14.59-2.16,2.86-4.65,5.38-8.01,6.86-2.93,1.27-5.9,1.34-8.85.17-4.32-1.7-8.59-3.53-12.96-5.16-3.96-1.49-8.13-2.22-12.3-2.74-1.13-.15-2.26-.24-3.36-.51-2.13-.51-3.67-2.52-3.67-4.7v-54.12c0-3.74,3.41-7.23,7.13-7.14,9.12.19,17.52,2.69,24.7,8.52,4.89,3.96,7.8,9.19,9.22,15.29.58,2.52.79,5.07.57,7.8v.03h.02,0Z"/>
            <path class="cls-1" d="M59.35,132.4c-2.25-.12-3.67-.81-4.66-2.23-6.96-9.93-13.94-19.87-20.88-29.81-1.8-2.57-1.23-5.47,1.35-7.3,1.5-1.06,3.02-2.11,4.51-3.18.79-.55,1.11-.51,1.66.3,8.45,12.07,16.92,24.14,25.37,36.21.67.94.62,1.15-.33,1.83-1.5,1.06-2.97,2.19-4.53,3.15-.9.55-1.94.86-2.49,1.08h0v-.05h0ZM60.64,122.44c0-.72-.55-1.29-1.26-1.32-.72-.03-1.35.58-1.35,1.3s.54,1.27,1.26,1.3c.77.03,1.34-.54,1.35-1.29h0ZM52.97,111.46c0-.75-.6-1.3-1.37-1.27-.72.03-1.26.58-1.25,1.3,0,.72.57,1.29,1.27,1.3.72,0,1.34-.62,1.34-1.34h0ZM46.61,110.68c-.7,0-1.27.54-1.3,1.26-.03.77.51,1.34,1.27,1.35.72,0,1.3-.53,1.34-1.25.03-.69-.62-1.37-1.3-1.37h0ZM45.33,100.48c-.02-.75-.63-1.27-1.42-1.23-.74.03-1.25.62-1.18,1.35.03.69.69,1.29,1.35,1.25s1.27-.7,1.26-1.37h0ZM38.89,102.39c.7,0,1.37-.63,1.35-1.32,0-.69-.6-1.27-1.3-1.29-.74,0-1.29.51-1.3,1.23-.03.77.51,1.37,1.26,1.38h0ZM55.58,122.95c0-.67-.66-1.3-1.3-1.3s-1.32.63-1.3,1.37c.03.74.57,1.25,1.34,1.23.74,0,1.29-.57,1.27-1.29h0ZM47.8,107.28c.77,0,1.29-.5,1.3-1.25,0-.77-.57-1.38-1.3-1.37-.67,0-1.29.66-1.3,1.32,0,.72.55,1.27,1.29,1.27h.02v.02h0ZM44.03,106.58c.02-.77-.45-1.3-1.2-1.34s-1.41.55-1.41,1.27.6,1.29,1.3,1.3c.74,0,1.27-.51,1.3-1.26h0v.02h0ZM50.3,118.81c.66.06,1.29-.43,1.37-1.11.1-.77-.34-1.38-1.05-1.49-.81-.1-1.49.39-1.54,1.17-.05.66.53,1.34,1.2,1.41h.02l.02.02h0ZM56.78,116.96c0-.74-.54-1.29-1.27-1.3-.75,0-1.34.57-1.32,1.32,0,.74.57,1.27,1.3,1.26.74,0,1.29-.54,1.29-1.29h0v.02h0Z"/>
            <path class="cls-1" d="M83.78,60.52c.93,1.18,1.87,2.37,2.81,3.57.67.86,1.25,1.82,2.01,2.55,1.27,1.23,1.44,2.74,1.53,4.35.15,2.67.39,5.35.6,8.02.18,2.46.34,4.92.54,7.38.19,2.64.41,5.3.6,7.95.18,2.46.36,4.92.54,7.38.19,2.64.41,5.3.6,7.95.12,1.53.26,3.09.33,4.62.02.36-.17.74-.26,1.1-.54,1.85-1.08,3.67-1.63,5.52-.06.19-.26.36-.39.54-.12-.18-.3-.36-.33-.55-.27-2.01-.53-4.03-.77-6.03-.36-2.86-.7-5.74-1.05-8.61-.3-2.45-.6-4.87-.91-7.32-.31-2.46-.62-4.95-.93-7.41-.3-2.42-.58-4.83-.87-7.26-.34-2.82-.69-5.64-1.03-8.47-.3-2.37-.62-4.71-.91-7.08-.3-2.46-.58-4.95-.86-7.42-.03-.22.05-.45.06-.7.1-.02.19-.03.27-.05h.02l.05-.02h-.02Z"/>
            <path class="cls-1" d="M84.23,122.24c-.1-.24-.22-.48-.3-.72-2.19-8.71-4.35-17.43-6.53-26.13-2.54-10.13-5.06-20.26-7.56-30.39-.1-.38-.05-.79-.06-1.18.34.22.72.41.99.69,1.83,1.82,3.65,3.67,5.46,5.47.51.5.81,1.01.94,1.71,1.41,7.29,2.83,14.57,4.27,21.84,1.27,6.46,2.49,12.94,3.89,19.37.45,2.1.12,4.08-.19,6.09-.14.86-.27,1.7-.43,2.57-.05.24-.15.48-.22.7h-.27.02s0-.02,0-.02Z"/>
            <path class="cls-1" d="M57.01,69.08c1.14.91,2.28,1.82,3.41,2.73,1.29,1.05,2.58,2.07,3.86,3.14.26.22.51.57.62.9,4.41,13.44,8.79,26.86,13.14,40.34.26.81.17,1.75.17,2.64,0,1.3-.07,2.61-.17,3.9-.02.27-.21.55-.33.82-.18-.22-.43-.43-.54-.7-4.61-11.94-9.18-23.9-13.77-35.85-2.16-5.62-4.32-11.23-6.48-16.86-.12-.3-.12-.63-.18-.96l.27-.12h0l.02.03-.02-.02Z"/>
            <path class="cls-1" d="M71.3,125.26s-.07.24-.21.27c-.12.03-.33-.1-.43-.22-.14-.17-.19-.38-.31-.57-8.35-15.69-16.7-31.38-25.05-47.07-.07-.15-.18-.27-.21-.43-.03-.14-.05-.34.03-.42s.31-.06.42-.02c.26.14.51.31.77.48,2.25,1.47,4.5,2.93,6.72,4.42.34.22.67.57.82.93,5.58,11.97,11.16,23.97,16.68,35.97.36.78.38,1.73.45,2.61.14,1.29.19,2.59.3,4.06h.02l.02-.02h-.02Z"/>
          </g>
          <g>
            <path class="cls-1" d="M139.12,88.04c2.01-.86,4.02-1.3,6.14-1.32,5.5-.06,9.65,2.28,12.7,6.82,3.38,5.02,2.91,10.82-.55,15.62-3.54,4.9-7.13,9.78-10.77,14.59-2.16,2.86-4.65,5.38-8.01,6.86-2.93,1.27-5.9,1.34-8.85.17-4.32-1.7-8.59-3.53-12.96-5.16-3.96-1.49-8.13-2.22-12.3-2.74-1.13-.15-2.26-.24-3.36-.51-2.13-.51-3.67-2.52-3.67-4.7v-54.12c0-3.74,3.41-7.23,7.13-7.14,9.12.19,17.52,2.69,24.7,8.52,4.89,3.96,7.8,9.19,9.22,15.29.58,2.52.79,5.07.57,7.8v.03h.02,0Z"/>
            <path class="cls-1" d="M59.35,132.4c-2.25-.12-3.67-.81-4.66-2.23-6.96-9.93-13.94-19.87-20.88-29.81-1.8-2.57-1.23-5.47,1.35-7.3,1.5-1.06,3.02-2.11,4.51-3.18.79-.55,1.11-.51,1.66.3,8.45,12.07,16.92,24.14,25.37,36.21.67.94.62,1.15-.33,1.83-1.5,1.06-2.97,2.19-4.53,3.15-.9.55-1.94.86-2.49,1.08h0v-.05h0ZM60.64,122.44c0-.72-.55-1.29-1.26-1.32-.72-.03-1.35.58-1.35,1.3s.54,1.27,1.26,1.3c.77.03,1.34-.54,1.35-1.29h0ZM52.97,111.46c0-.75-.6-1.3-1.37-1.27-.72.03-1.26.58-1.25,1.3,0,.72.57,1.29,1.27,1.3.72,0,1.34-.62,1.34-1.34h0ZM46.61,110.68c-.7,0-1.27.54-1.3,1.26-.03.77.51,1.34,1.27,1.35.72,0,1.3-.53,1.34-1.25.03-.69-.62-1.37-1.3-1.37h0ZM45.33,100.48c-.02-.75-.63-1.27-1.42-1.23-.74.03-1.25.62-1.18,1.35.03.69.69,1.29,1.35,1.25s1.27-.7,1.26-1.37h0ZM38.89,102.39c.7,0,1.37-.63,1.35-1.32,0-.69-.6-1.27-1.3-1.29-.74,0-1.29.51-1.3,1.23-.03.77.51,1.37,1.26,1.38h0ZM55.58,122.95c0-.67-.66-1.3-1.3-1.3s-1.32.63-1.3,1.37c.03.74.57,1.25,1.34,1.23.74,0,1.29-.57,1.27-1.29h0ZM47.8,107.28c.77,0,1.29-.5,1.3-1.25,0-.77-.57-1.38-1.3-1.37-.67,0-1.29.66-1.3,1.32,0,.72.55,1.27,1.29,1.27h.02v.02h0ZM44.03,106.58c.02-.77-.45-1.3-1.2-1.34s-1.41.55-1.41,1.27.6,1.29,1.3,1.3c.74,0,1.27-.51,1.3-1.26h0v.02h0ZM50.3,118.81c.66.06,1.29-.43,1.37-1.11.1-.77-.34-1.38-1.05-1.49-.81-.1-1.49.39-1.54,1.17-.05.66.53,1.34,1.2,1.41h.02l.02.02h0ZM56.78,116.96c0-.74-.54-1.29-1.27-1.3-.75,0-1.34.57-1.32,1.32,0,.74.57,1.27,1.3,1.26.74,0,1.29-.54,1.29-1.29h0v.02h0Z"/>
            <path class="cls-1" d="M83.78,60.52c.93,1.18,1.87,2.37,2.81,3.57.67.86,1.25,1.82,2.01,2.55,1.27,1.23,1.44,2.74,1.53,4.35.15,2.67.39,5.35.6,8.02.18,2.46.34,4.92.54,7.38.19,2.64.41,5.3.6,7.95.18,2.46.36,4.92.54,7.38.19,2.64.41,5.3.6,7.95.12,1.53.26,3.09.33,4.62.02.36-.17.74-.26,1.1-.54,1.85-1.08,3.67-1.63,5.52-.06.19-.26.36-.39.54-.12-.18-.3-.36-.33-.55-.27-2.01-.53-4.03-.77-6.03-.36-2.86-.7-5.74-1.05-8.61-.3-2.45-.6-4.87-.91-7.32-.31-2.46-.62-4.95-.93-7.41-.3-2.42-.58-4.83-.87-7.26-.34-2.82-.69-5.64-1.03-8.47-.3-2.37-.62-4.71-.91-7.08-.3-2.46-.58-4.95-.86-7.42-.03-.22.05-.45.06-.7.1-.02.19-.03.27-.05h.02l.05-.02h-.02Z"/>
            <path class="cls-1" d="M84.23,122.24c-.1-.24-.22-.48-.3-.72-2.19-8.71-4.35-17.43-6.53-26.13-2.54-10.13-5.06-20.26-7.56-30.39-.1-.38-.05-.79-.06-1.18.34.22.72.41.99.69,1.83,1.82,3.65,3.67,5.46,5.47.51.5.81,1.01.94,1.71,1.41,7.29,2.83,14.57,4.27,21.84,1.27,6.46,2.49,12.94,3.89,19.37.45,2.1.12,4.08-.19,6.09-.14.86-.27,1.7-.43,2.57-.05.24-.15.48-.22.7h-.27.02s0-.02,0-.02Z"/>
            <path class="cls-1" d="M57.01,69.08c1.14.91,2.28,1.82,3.41,2.73,1.29,1.05,2.58,2.07,3.86,3.14.26.22.51.57.62.9,4.41,13.44,8.79,26.86,13.14,40.34.26.81.17,1.75.17,2.64,0,1.3-.07,2.61-.17,3.9-.02.27-.21.55-.33.82-.18-.22-.43-.43-.54-.7-4.61-11.94-9.18-23.9-13.77-35.85-2.16-5.62-4.32-11.23-6.48-16.86-.12-.3-.12-.63-.18-.96l.27-.12h0l.02.03-.02-.02Z"/>
            <path class="cls-1" d="M71.3,125.26s-.07.24-.21.27c-.12.03-.33-.1-.43-.22-.14-.17-.19-.38-.31-.57-8.35-15.69-16.7-31.38-25.05-47.07-.07-.15-.18-.27-.21-.43-.03-.14-.05-.34.03-.42s.31-.06.42-.02c.26.14.51.31.77.48,2.25,1.47,4.5,2.93,6.72,4.42.34.22.67.57.82.93,5.58,11.97,11.16,23.97,16.68,35.97.36.78.38,1.73.45,2.61.14,1.29.19,2.59.3,4.06h.02l.02-.02h-.02Z"/>
          </g>
        </g>
      </g>
    </g>
  </g>
</svg>