<?xml version="1.0" encoding="UTF-8"?>
<svg id="Layer_2" xmlns="http://www.w3.org/2000/svg" viewBox="0 0 513 513">
  <defs>
    <style>
      .cls-1 {
        fill: #fff;
      }

      .cls-2 {
        stroke: #000;
        stroke-miterlimit: 10;
      }
    </style>
  </defs>
  <g id="Layer_1-2" data-name="Layer_1">
    <g id="Layer_2-2">
      <g id="Layer_4-2">
        <rect class="cls-2" x=".5" y=".5" width="512" height="512"/>
        <g id="Layer_4-3">
          <g id="Layer_2-2-3">
            <g id="Layer_1-2-2">
              <g>
                <path class="cls-1" d="M370.1,233.8c5.3-2.4,10.7-3.5,16.3-3.5,14.7,0,25.6,6.1,33.9,18.1,9.1,13.3,7.7,28.8-1.6,41.6-9.3,13.1-18.9,26.1-28.8,38.9-5.9,7.7-12.3,14.4-21.3,18.4-7.7,3.5-15.7,3.5-23.5.5-11.5-4.5-22.9-9.3-34.7-13.9-10.7-4-21.6-5.9-32.8-7.2-2.9-.5-6.1-.5-9.1-1.3-5.6-1.3-9.9-6.7-9.9-12.5v-144.3c0-9.9,9.1-19.2,18.9-18.9,24.3.5,46.7,7.2,65.9,22.7,13.1,10.7,20.8,24.5,24.5,40.8,1.6,6.7,2.1,13.6,1.6,20.8h0l.5-.3.1.1Z"/>
                <path class="cls-1" d="M157.6,352.2c-5.9-.3-9.9-2.1-12.5-5.9-18.7-26.4-37.1-53.1-55.7-79.5-4.8-6.9-3.2-14.7,3.7-19.5,4-2.9,8-5.6,12-8.5,2.1-1.6,2.9-1.3,4.5.8,22.4,32.3,45.1,64.3,67.7,96.5,1.9,2.4,1.6,3.2-.8,4.8-4,2.9-8,5.9-12,8.5-2.4,1.6-5.1,2.4-6.7,2.9h0l-.3-.3.1.2ZM160.8,325.6c0-1.9-1.6-3.5-3.5-3.5s-3.7,1.6-3.7,3.5,1.3,3.5,3.5,3.5,3.5-1.3,3.7-3.5h0ZM140.5,296.5c0-2.1-1.6-3.5-3.7-3.5s-3.5,1.6-3.2,3.5c0,1.9,1.6,3.5,3.5,3.5s3.5-1.6,3.5-3.5h-.1ZM123.4,294.4c-1.9,0-3.5,1.3-3.5,3.5s1.3,3.5,3.5,3.7c1.9,0,3.5-1.3,3.5-3.2s-1.6-3.7-3.5-3.7h0v-.3ZM120,267.2c0-2.1-1.6-3.5-3.7-3.2-1.9,0-3.2,1.6-3.2,3.7s1.9,3.5,3.7,3.2,3.5-1.9,3.5-3.7h-.3ZM102.9,272.2c1.9,0,3.7-1.6,3.7-3.5s-1.6-3.5-3.5-3.5-3.5,1.3-3.5,3.2,1.3,3.7,3.5,3.7h-.3l.1.1ZM147.4,326.9c0-1.9-1.9-3.5-3.5-3.5s-3.5,1.6-3.5,3.7,1.6,3.2,3.5,3.2,3.5-1.6,3.5-3.5h0v.1ZM126.6,285.3c2.1,0,3.5-1.3,3.5-3.2s-1.6-3.7-3.5-3.7-3.5,1.9-3.5,3.5,1.6,3.5,3.5,3.5h0v-.1ZM116.5,283.4c0-2.1-1.1-3.5-3.2-3.5s-3.7,1.6-3.7,3.5,1.6,3.5,3.5,3.5,3.5-1.3,3.5-3.5h-.1ZM133.3,316c1.9,0,3.5-1.1,3.7-2.9.3-2.1-.8-3.7-2.7-4-2.1-.3-4,1.1-4,3.2s1.3,3.5,3.2,3.7h-.3.1ZM150.6,311.2c0-1.9-1.3-3.5-3.5-3.5s-3.5,1.6-3.5,3.5,1.6,3.5,3.5,3.5,3.5-1.3,3.5-3.5h0Z"/>
                <path class="cls-1" d="M222.6,160.5c2.4,3.2,5.1,6.4,7.5,9.6,1.9,2.4,3.2,4.8,5.3,6.9,3.5,3.2,3.7,7.2,4,11.7.5,7.2,1.1,14.4,1.6,21.3.5,6.7.8,13.1,1.3,19.7.5,6.9,1.1,14.1,1.6,21.3.5,6.7,1.1,13.1,1.3,19.7.5,6.9,1.1,14.1,1.6,21.3.3,4,.8,8.3.8,12.3s-.5,1.9-.8,2.9c-1.3,4.8-2.9,9.9-4.3,14.7,0,.5-.8,1.1-1.1,1.3-.3-.5-.8-1.1-.8-1.6-.8-5.3-1.3-10.7-2.1-16-1.1-7.7-1.9-15.2-2.7-22.9-.8-6.4-1.6-13.1-2.4-19.5-.8-6.7-1.6-13.3-2.4-19.7-.8-6.4-1.6-12.8-2.4-19.5-.8-7.5-1.9-14.9-2.7-22.7-.8-6.4-1.6-12.5-2.4-18.9-.8-6.7-1.6-13.3-2.4-19.7v-1.9h.8l.5-.5.2.2Z"/>
                <path class="cls-1" d="M223.7,325c-.3-.5-.5-1.3-.8-1.9-5.9-23.2-11.7-46.4-17.3-69.6-6.7-26.9-13.6-54.1-20.3-81.1-.3-1.1,0-2.1,0-3.2.8.5,1.9,1.1,2.7,1.9,4.8,4.8,9.6,9.9,14.7,14.7,1.3,1.3,2.1,2.7,2.4,4.5,3.7,19.5,7.5,38.9,11.5,58.1,3.5,17.3,6.7,34.4,10.4,51.7,1.1,5.6.3,10.9-.5,16.3-.3,2.4-.8,4.5-1.1,6.9,0,.5-.5,1.3-.5,1.9h-.8l-.3-.3-.1.1Z"/>
                <path class="cls-1" d="M151.2,183.4c2.9,2.4,6.1,4.8,9.1,7.2,3.5,2.7,6.9,5.6,10.4,8.3.8.5,1.3,1.6,1.6,2.4,11.7,35.7,23.5,71.7,34.9,107.5.8,2.1.5,4.8.5,6.9,0,3.5,0,6.9-.5,10.4,0,.8-.5,1.6-.8,2.1-.5-.5-1.1-1.1-1.3-1.9-12.3-31.7-24.5-63.7-36.8-95.5-5.9-14.9-11.5-29.9-17.3-45.1-.3-.8-.3-1.6-.5-2.7h.8c0-.3,0,0,0,0h0v.3l-.1.1Z"/>
                <path class="cls-1" d="M189.3,333.3s0,.5-.5.8c-.3,0-.8-.3-1.1-.5-.3-.5-.5-1.1-.8-1.6-22.4-41.9-44.5-83.7-66.7-125.6,0-.5-.5-.8-.5-1.1v-1.1c0-.3.8,0,1.1,0,.8.3,1.3.8,2.1,1.3,5.9,4,12,7.7,17.9,11.7.8.5,1.9,1.6,2.1,2.4,14.9,32,29.9,64,44.5,96,1.1,2.1,1.1,4.5,1.1,6.9.3,3.5.5,6.9.8,10.9h0v-.3.2Z"/>
              </g>
              <g>
                <path class="cls-1" d="M370.1,233.8c5.3-2.4,10.7-3.5,16.3-3.5,14.7,0,25.6,6.1,33.9,18.1,9.1,13.3,7.7,28.8-1.6,41.6-9.3,13.1-18.9,26.1-28.8,38.9-5.9,7.7-12.3,14.4-21.3,18.4-7.7,3.5-15.7,3.5-23.5.5-11.5-4.5-22.9-9.3-34.7-13.9-10.7-4-21.6-5.9-32.8-7.2-2.9-.5-6.1-.5-9.1-1.3-5.6-1.3-9.9-6.7-9.9-12.5v-144.3c0-9.9,9.1-19.2,18.9-18.9,24.3.5,46.7,7.2,65.9,22.7,13.1,10.7,20.8,24.5,24.5,40.8,1.6,6.7,2.1,13.6,1.6,20.8h0l.5-.3.1.1Z"/>
                <path class="cls-1" d="M157.6,352.2c-5.9-.3-9.9-2.1-12.5-5.9-18.7-26.4-37.1-53.1-55.7-79.5-4.8-6.9-3.2-14.7,3.7-19.5,4-2.9,8-5.6,12-8.5,2.1-1.6,2.9-1.3,4.5.8,22.4,32.3,45.1,64.3,67.7,96.5,1.9,2.4,1.6,3.2-.8,4.8-4,2.9-8,5.9-12,8.5-2.4,1.6-5.1,2.4-6.7,2.9h0l-.3-.3.1.2ZM160.8,325.6c0-1.9-1.6-3.5-3.5-3.5s-3.7,1.6-3.7,3.5,1.3,3.5,3.5,3.5,3.5-1.3,3.7-3.5h0ZM140.5,296.5c0-2.1-1.6-3.5-3.7-3.5s-3.5,1.6-3.2,3.5c0,1.9,1.6,3.5,3.5,3.5s3.5-1.6,3.5-3.5h-.1ZM123.4,294.4c-1.9,0-3.5,1.3-3.5,3.5s1.3,3.5,3.5,3.7c1.9,0,3.5-1.3,3.5-3.2s-1.6-3.7-3.5-3.7h0v-.3ZM120,267.2c0-2.1-1.6-3.5-3.7-3.2-1.9,0-3.2,1.6-3.2,3.7s1.9,3.5,3.7,3.2,3.5-1.9,3.5-3.7h-.3ZM102.9,272.2c1.9,0,3.7-1.6,3.7-3.5s-1.6-3.5-3.5-3.5-3.5,1.3-3.5,3.2,1.3,3.7,3.5,3.7h-.3l.1.1ZM147.4,326.9c0-1.9-1.9-3.5-3.5-3.5s-3.5,1.6-3.5,3.7,1.6,3.2,3.5,3.2,3.5-1.6,3.5-3.5h0v.1ZM126.6,285.3c2.1,0,3.5-1.3,3.5-3.2s-1.6-3.7-3.5-3.7-3.5,1.9-3.5,3.5,1.6,3.5,3.5,3.5h0v-.1ZM116.5,283.4c0-2.1-1.1-3.5-3.2-3.5s-3.7,1.6-3.7,3.5,1.6,3.5,3.5,3.5,3.5-1.3,3.5-3.5h-.1ZM133.3,316c1.9,0,3.5-1.1,3.7-2.9.3-2.1-.8-3.7-2.7-4-2.1-.3-4,1.1-4,3.2s1.3,3.5,3.2,3.7h-.3.1ZM150.6,311.2c0-1.9-1.3-3.5-3.5-3.5s-3.5,1.6-3.5,3.5,1.6,3.5,3.5,3.5,3.5-1.3,3.5-3.5h0Z"/>
                <path class="cls-1" d="M222.6,160.5c2.4,3.2,5.1,6.4,7.5,9.6,1.9,2.4,3.2,4.8,5.3,6.9,3.5,3.2,3.7,7.2,4,11.7.5,7.2,1.1,14.4,1.6,21.3.5,6.7.8,13.1,1.3,19.7.5,6.9,1.1,14.1,1.6,21.3.5,6.7,1.1,13.1,1.3,19.7.5,6.9,1.1,14.1,1.6,21.3.3,4,.8,8.3.8,12.3s-.5,1.9-.8,2.9c-1.3,4.8-2.9,9.9-4.3,14.7,0,.5-.8,1.1-1.1,1.3-.3-.5-.8-1.1-.8-1.6-.8-5.3-1.3-10.7-2.1-16-1.1-7.7-1.9-15.2-2.7-22.9-.8-6.4-1.6-13.1-2.4-19.5-.8-6.7-1.6-13.3-2.4-19.7-.8-6.4-1.6-12.8-2.4-19.5-.8-7.5-1.9-14.9-2.7-22.7-.8-6.4-1.6-12.5-2.4-18.9-.8-6.7-1.6-13.3-2.4-19.7v-1.9h.8l.5-.5.2.2Z"/>
                <path class="cls-1" d="M223.7,325c-.3-.5-.5-1.3-.8-1.9-5.9-23.2-11.7-46.4-17.3-69.6-6.7-26.9-13.6-54.1-20.3-81.1-.3-1.1,0-2.1,0-3.2.8.5,1.9,1.1,2.7,1.9,4.8,4.8,9.6,9.9,14.7,14.7,1.3,1.3,2.1,2.7,2.4,4.5,3.7,19.5,7.5,38.9,11.5,58.1,3.5,17.3,6.7,34.4,10.4,51.7,1.1,5.6.3,10.9-.5,16.3-.3,2.4-.8,4.5-1.1,6.9,0,.5-.5,1.3-.5,1.9h-.8l-.3-.3-.1.1Z"/>
                <path class="cls-1" d="M151.2,183.4c2.9,2.4,6.1,4.8,9.1,7.2,3.5,2.7,6.9,5.6,10.4,8.3.8.5,1.3,1.6,1.6,2.4,11.7,35.7,23.5,71.7,34.9,107.5.8,2.1.5,4.8.5,6.9,0,3.5,0,6.9-.5,10.4,0,.8-.5,1.6-.8,2.1-.5-.5-1.1-1.1-1.3-1.9-12.3-31.7-24.5-63.7-36.8-95.5-5.9-14.9-11.5-29.9-17.3-45.1-.3-.8-.3-1.6-.5-2.7h.8c0-.3,0,0,0,0h0v.3l-.1.1Z"/>
                <path class="cls-1" d="M189.3,333.3s0,.5-.5.8c-.3,0-.8-.3-1.1-.5-.3-.5-.5-1.1-.8-1.6-22.4-41.9-44.5-83.7-66.7-125.6,0-.5-.5-.8-.5-1.1v-1.1c0-.3.8,0,1.1,0,.8.3,1.3.8,2.1,1.3,5.9,4,12,7.7,17.9,11.7.8.5,1.9,1.6,2.1,2.4,14.9,32,29.9,64,44.5,96,1.1,2.1,1.1,4.5,1.1,6.9.3,3.5.5,6.9.8,10.9h0v-.3.2Z"/>
              </g>
            </g>
          </g>
        </g>
      </g>
    </g>
  </g>
</svg>