<?xml version="1.0" encoding="utf-8"?>
<!-- Generator: Adobe Illustrator 26.5.0, SVG Export Plug-In . SVG Version: 6.00 Build 0)  -->
<svg version="1.1" id="Artwork" xmlns="http://www.w3.org/2000/svg" xmlns:xlink="http://www.w3.org/1999/xlink" x="0px"
  y="0px" width="744.346px" height="80.787px" viewBox="0 0 744.346 80.787"
  style="enable-background:new 0 0 744.346 80.787;" xml:space="preserve">
  <g>
    <g>
      <g>
        <path d="M142.141,78.572V24.805h-0.354l-22.023,53.768h-8.404L89.285,24.805H88.93v53.768H78.602V5.515h13.113l23.644,58.224
				h0.405l23.593-58.224h13.163v73.058H142.141z" />
        <path
          d="M209.726,78.572h-10.479v-9.012h-0.254c-2.936,6.379-8.354,9.974-16.505,9.974c-11.594,0-18.682-7.544-18.682-19.745
				V25.311h10.936v32.353c0,8.101,3.848,12.454,11.392,12.454c7.898,0,12.657-5.468,12.657-13.771V25.311h10.936V78.572z" />
        <path d="M239.593,24.349c12.404,0,20.454,6.886,20.809,16.708h-10.278c-0.607-5.164-4.404-8.404-10.53-8.404
				c-5.924,0-9.873,2.886-9.873,7.139c0,3.341,2.431,5.619,8.202,6.936l8.657,1.975c10.886,2.531,15.037,6.784,15.037,14.479
				c0,9.721-9.063,16.404-21.618,16.404c-13.315,0-21.315-6.531-22.328-16.657h10.835c1.013,5.569,4.81,8.304,11.493,8.304
				c6.581,0,10.632-2.734,10.632-7.088c0-3.443-1.975-5.469-7.797-6.785l-8.657-2.024c-10.126-2.329-15.139-7.189-15.139-14.936
				C219.037,30.88,227.341,24.349,239.593,24.349z" />
        <path d="M269.26,11.236c0-3.493,2.835-6.278,6.328-6.278c3.494,0,6.329,2.785,6.329,6.278c0,3.442-2.835,6.277-6.329,6.277
				C272.095,17.514,269.26,14.679,269.26,11.236z M270.12,25.311h10.936v53.262H270.12V25.311z" />
        <path
          d="M327.224,43.639c-1.113-5.671-5.366-10.177-12.505-10.177c-8.455,0-14.024,7.037-14.024,18.479
				c0,11.695,5.62,18.479,14.126,18.479c6.733,0,11.138-3.695,12.403-9.872h10.531c-1.165,11.341-10.228,19.036-23.036,19.036
				c-15.239,0-25.162-10.43-25.162-27.644c0-16.91,9.923-27.593,25.061-27.593c13.721,0,22.074,8.81,23.036,19.29H327.224z" />
        <path d="M356.805,42.019c0-23.138,13.062-37.719,33.466-37.719c16.556,0,29.061,10.177,30.984,25.416h-11.239
				c-2.025-9.366-9.822-15.492-19.745-15.492c-13.265,0-21.871,10.885-21.871,27.795c0,17.062,8.505,27.846,21.922,27.846
				c10.177,0,17.416-5.215,19.694-14.024h11.29c-2.784,15.088-14.227,23.947-31.035,23.947
				C369.765,79.787,356.805,65.308,356.805,42.019z" />
        <path d="M429.801,5.515h10.936v73.058h-10.936V5.515z" />
        <path d="M449.127,63.435c0-9.316,7.139-15.037,19.796-15.746l14.581-0.86v-4.101c0-5.924-4-9.468-10.683-9.468
				c-6.329,0-10.278,3.037-11.24,7.797h-10.328c0.607-9.62,8.81-16.708,21.973-16.708c12.911,0,21.163,6.835,21.163,17.518v36.706
				h-10.48v-8.759h-0.253c-3.088,5.924-9.821,9.67-16.809,9.67C456.417,79.483,449.127,73.003,449.127,63.435z M483.504,58.625
				v-4.202l-13.113,0.81c-6.531,0.456-10.227,3.342-10.227,7.898c0,4.657,3.848,7.695,9.721,7.695
				C477.529,70.826,483.504,65.561,483.504,58.625z" />
        <path d="M523.74,24.349c12.404,0,20.454,6.886,20.809,16.708H534.27c-0.607-5.164-4.404-8.404-10.53-8.404
				c-5.924,0-9.873,2.886-9.873,7.139c0,3.341,2.431,5.619,8.202,6.936l8.657,1.975c10.886,2.531,15.037,6.784,15.037,14.479
				c0,9.721-9.062,16.404-21.618,16.404c-13.315,0-21.315-6.531-22.328-16.657h10.835c1.013,5.569,4.81,8.304,11.493,8.304
				c6.581,0,10.632-2.734,10.632-7.088c0-3.443-1.975-5.469-7.797-6.785l-8.657-2.024c-10.126-2.329-15.139-7.189-15.139-14.936
				C503.184,30.88,511.488,24.349,523.74,24.349z" />
        <path d="M572.989,24.349c12.404,0,20.454,6.886,20.809,16.708h-10.278c-0.607-5.164-4.404-8.404-10.53-8.404
				c-5.924,0-9.873,2.886-9.873,7.139c0,3.341,2.431,5.619,8.202,6.936l8.657,1.975c10.886,2.531,15.037,6.784,15.037,14.479
				c0,9.721-9.062,16.404-21.618,16.404c-13.315,0-21.315-6.531-22.328-16.657h10.835c1.013,5.569,4.81,8.304,11.493,8.304
				c6.581,0,10.632-2.734,10.632-7.088c0-3.443-1.975-5.469-7.797-6.785l-8.657-2.024c-10.126-2.329-15.139-7.189-15.139-14.936
				C552.433,30.88,560.737,24.349,572.989,24.349z" />
        <path d="M602.656,11.236c0-3.493,2.835-6.278,6.328-6.278c3.494,0,6.329,2.785,6.329,6.278c0,3.442-2.835,6.277-6.329,6.277
				C605.491,17.514,602.656,14.679,602.656,11.236z M603.516,25.311h10.936v53.262h-10.936V25.311z" />
        <path
          d="M660.62,43.639c-1.113-5.671-5.366-10.177-12.505-10.177c-8.455,0-14.024,7.037-14.024,18.479
				c0,11.695,5.62,18.479,14.126,18.479c6.733,0,11.138-3.695,12.403-9.872h10.531c-1.165,11.341-10.228,19.036-23.036,19.036
				c-15.239,0-25.162-10.43-25.162-27.644c0-16.91,9.923-27.593,25.061-27.593c13.721,0,22.074,8.81,23.036,19.29H660.62z" />
        <path d="M676.467,63.435c0-9.316,7.139-15.037,19.796-15.746l14.581-0.86v-4.101c0-5.924-4-9.468-10.683-9.468
				c-6.329,0-10.278,3.037-11.24,7.797h-10.328c0.607-9.62,8.81-16.708,21.973-16.708c12.911,0,21.163,6.835,21.163,17.518v36.706
				h-10.48v-8.759h-0.253c-3.088,5.924-9.821,9.67-16.809,9.67C683.757,79.483,676.467,73.003,676.467,63.435z M710.844,58.625
				v-4.202l-13.113,0.81c-6.531,0.456-10.227,3.342-10.227,7.898c0,4.657,3.848,7.695,9.721,7.695
				C704.869,70.826,710.844,65.561,710.844,58.625z" />
        <path d="M732.41,5.515h10.936v73.058H732.41V5.515z" />
      </g>
    </g>
    <g>
      <path d="M47.896,19.129c-6.518-0.482-12.048,3.641-15.133,3.641c-3.13,0-7.956-3.537-13.073-3.44
			c-6.719,0.098-12.912,3.91-16.377,9.926C-3.667,41.37,1.53,59.32,8.328,69.15c3.325,4.803,7.291,10.216,12.5,10.019
			c5.014-0.197,6.911-3.243,12.972-3.243c6.057,0,7.766,3.243,13.068,3.146c5.397-0.1,8.816-4.903,12.117-9.733
			c3.82-5.575,5.389-10.973,5.482-11.259c-0.119-0.045-10.52-4.036-10.624-16.019c-0.094-10.018,8.177-14.834,8.553-15.066
			C57.703,20.081,50.45,19.318,47.896,19.129z" />
      <path d="M43.874,12.64C46.642,9.294,48.505,4.635,47.992,0c-3.984,0.158-8.803,2.654-11.661,5.998
			c-2.559,2.962-4.807,7.706-4.196,12.246C36.575,18.586,41.108,15.988,43.874,12.64z" />
    </g>
  </g>
</svg>