<?xml version="1.0" encoding="UTF-8"?>
<svg id="Layer_2" data-name="Layer 2" xmlns="http://www.w3.org/2000/svg" viewBox="0 0 462.95 84">
	<defs>
		<style>
			.cls-1 {
				letter-spacing: -.1em;
			}

			.cls-2 {
				stroke-width: 0px;
			}

			.cls-2,
			.cls-3 {
				fill: #000;
			}

			.cls-3 {
				font-family: NewYork-Semibold, 'New York';
				font-size: 74.83px;
				font-variation-settings: 'opsz'256, 'wght'568;
				font-weight: 600;
			}

			.cls-4 {
				letter-spacing: 0em;
			}
		</style>
	</defs>
	<g id="Layer_6" data-name="Layer 6">
		<g id="_7Q0PfC" data-name="7Q0PfC">
			<g>
				<path class="cls-2"
					d="M8.36,44.19c2.57,0,5.15,0,7.72,0,.29,0,.44.04.45.39.08,3.72,1.36,6.98,3.82,9.77,2.28,2.59,5.13,4.24,8.52,4.88,4.57.86,8.73-.16,12.38-3.03,3.21-2.53,5.07-5.88,5.64-9.93.08-.57.14-1.14.13-1.71,0-.27.09-.37.37-.37,5.2,0,10.41,0,15.61,0,.28,0,.36.11.35.37-.05,4.19-.88,8.21-2.52,12.06-1.04,2.43-2.38,4.69-3.97,6.79-1.37,1.82-2.94,3.47-4.7,4.94-2.2,1.84-4.59,3.37-7.19,4.57-2.84,1.32-5.82,2.19-8.93,2.6-1.51.2-3.02.31-4.54.29-3.68-.04-7.26-.66-10.71-1.96-3.29-1.24-6.29-2.98-9.03-5.19-3.17-2.56-5.68-5.66-7.65-9.2-1.74-3.12-2.91-6.45-3.5-9.98-.27-1.64-.41-3.29-.43-4.96,0-.3.09-.37.38-.37,2.6.01,5.19,0,7.79,0Z" />
				<path class="cls-2"
					d="M23.81,44.19c1.68,0,3.37,0,5.05,0,.3,0,.41.08.46.39.18,1.1.82,1.83,1.9,2.08,1.02.24,1.89-.1,2.55-.93.26-.32.42-.7.45-1.12.02-.3.13-.43.47-.43,3.38.01,6.75,0,10.13,0,.43,0,.46.02.43.45-.19,3.83-1.65,7.07-4.51,9.65-2.23,2.01-4.85,3.15-7.82,3.38-3.86.3-7.28-.83-10.17-3.44-2.36-2.13-3.77-4.78-4.28-7.91-.09-.57-.15-1.15-.17-1.74-.01-.31.1-.4.4-.4,1.71.01,3.41,0,5.12,0Z" />
				<path class="cls-2"
					d="M36.18,25.62c0-5.42,0-10.85,0-16.27q0-.49.48-.49c.36,0,.73,0,1.09,0,.18,0,.26.08.26.26,0,.1,0,.2,0,.3,0,10.8,0,21.61,0,32.41,0,.09,0,.18,0,.26.02.21-.07.3-.29.29-.43,0-.86,0-1.29,0-.18,0-.26-.08-.25-.26,0-.12,0-.24,0-.36,0-5.38,0-10.76,0-16.14Z" />
				<path class="cls-2"
					d="M34.38,25.8c0,5.36,0,10.72,0,16.07q0,.51-.5.51c-.35,0-.7,0-1.06,0-.19,0-.29-.07-.28-.27,0-.09,0-.18,0-.26,0-10.73,0-21.45,0-32.18q0-.48.46-.48c.36,0,.73,0,1.09,0,.19,0,.29.07.28.27,0,.08,0,.15,0,.23,0,5.37,0,10.74,0,16.11Z" />
				<path class="cls-2"
					d="M39.81,25.82c0-5.34,0-10.67,0-16.01q0-.49.49-.49c.35,0,.7,0,1.06,0,.21,0,.3.08.29.29,0,.1,0,.2,0,.3,0,10.63,0,21.25,0,31.88,0,.1,0,.2,0,.3.02.21-.08.3-.29.29-.42,0-.84,0-1.25,0-.21,0-.3-.08-.29-.29,0-.11,0-.22,0-.33,0-5.31,0-10.63,0-15.94Z" />
				<path class="cls-2"
					d="M43.44,26.61c0-5.1,0-10.21,0-15.31q0-.46.47-.46c.36,0,.73.01,1.09,0,.22,0,.3.08.28.29-.01.14,0,.29,0,.43,0,10.06,0,20.11,0,30.17,0,.12,0,.24,0,.36.01.21-.07.3-.29.3-.43,0-.86,0-1.29,0-.18,0-.26-.07-.26-.25,0-.11,0-.22,0-.33,0-5.06,0-10.12,0-15.18Z" />
				<path class="cls-2"
					d="M28.99,26.58c0-5.1,0-10.21,0-15.31q0-.49.48-.49c.34,0,.68,0,1.02,0,.18,0,.26.07.26.26,0,.09,0,.18,0,.26,0,10.18,0,20.35,0,30.53,0,.09,0,.18,0,.26.02.21-.07.3-.29.3-.41,0-.81,0-1.22,0-.18,0-.26-.07-.26-.26,0-.11,0-.22,0-.33,0-5.07,0-10.14,0-15.21Z" />
				<path class="cls-2"
					d="M19.92,28.01c0,4.63,0,9.26,0,13.89q0,.49-.49.49c-.35,0-.7,0-1.06,0-.22,0-.3-.09-.29-.29,0-.1,0-.2,0-.3,0-9.19,0-18.39,0-27.58,0-.09,0-.18,0-.26-.03-.27.1-.34.35-.33.38.01.77.02,1.15,0,.26-.01.33.08.33.34,0,2.5,0,4.99,0,7.49,0,2.19,0,4.38,0,6.57Z" />
				<path class="cls-2"
					d="M16.29,28.3c0,4.53,0,9.06,0,13.59q0,.49-.48.49c-.36,0-.73,0-1.09,0-.18,0-.27-.07-.26-.25,0-.09,0-.18,0-.26,0-9.11,0-18.21,0-27.32,0-.31.07-.43.4-.41.37.03.75.02,1.12,0,.25,0,.34.09.32.33,0,.11,0,.22,0,.33,0,4.5,0,9,0,13.49Z" />
				<path class="cls-2"
					d="M27.18,28.33c0,4.52,0,9.04,0,13.56q0,.49-.48.49c-.36,0-.73,0-1.09,0-.18,0-.26-.07-.26-.26,0-.1,0-.2,0-.3,0-9,0-18,0-27,0-.09,0-.18,0-.26-.02-.21.07-.3.29-.29.43,0,.86,0,1.29,0,.18,0,.26.07.26.26,0,.11,0,.22,0,.33,0,4.49,0,8.98,0,13.46Z" />
				<path class="cls-2"
					d="M23.55,28.69c0,4.4,0,8.8,0,13.2q0,.49-.49.49c-.35,0-.7,0-1.06,0-.22,0-.3-.09-.29-.29,0-.12,0-.24,0-.36,0-8.75,0-17.49,0-26.24,0-.09,0-.18,0-.26-.02-.21.08-.3.29-.29.41,0,.81.01,1.22,0,.25,0,.32.09.32.33,0,.74,0,1.47,0,2.21,0,3.74,0,7.48,0,11.22Z" />
				<path class="cls-2"
					d="M47.07,28.15c0-4.59,0-9.17,0-13.76q0-.44.45-.44c.35,0,.7,0,1.06,0,.18,0,.27.07.26.25,0,.08,0,.15,0,.23,0,9.14,0,18.28,0,27.42q0,.53-.54.53c-.3,0-.59-.01-.89,0-.27.02-.36-.1-.33-.35.01-.11,0-.22,0-.33,0-4.52,0-9.04,0-13.56Z" />
				<path class="cls-2"
					d="M12.66,29.45c0,4.15,0,8.29,0,12.44q0,.49-.49.49c-.35,0-.7,0-1.06,0-.22,0-.3-.09-.29-.29,0-.1,0-.2,0-.3,0-8.25,0-16.5,0-24.75,0-.1,0-.2,0-.3-.02-.21.08-.3.29-.29.41,0,.81.01,1.22,0,.25,0,.32.09.32.33,0,.92,0,1.85,0,2.77,0,3.3,0,6.6,0,9.9Z" />
				<path class="cls-2"
					d="M5.46,33.45c0,2.83,0,5.65,0,8.48,0,.45,0,.45-.45.45-.36,0-.73,0-1.09,0-.22,0-.3-.09-.29-.29,0-.08,0-.15,0-.23,0-5.62,0-11.24,0-16.86q0-.49.49-.49c.32,0,.64.02.96,0,.31-.02.39.1.39.4,0,2.25,0,4.51,0,6.76,0,.59,0,1.19,0,1.78Z" />
				<path class="cls-2"
					d="M7.26,33.24c0-2.88,0-5.76,0-8.64q0-.42.44-.42c.35,0,.7,0,1.06,0,.2,0,.28.08.27.28,0,.09,0,.18,0,.26,0,5.71,0,11.41,0,17.12q0,.54-.53.54c-.25,0-.51,0-.76,0-.47,0-.48,0-.48-.46,0-2.78,0-5.56,0-8.35,0-.11,0-.22,0-.33Z" />
				<path class="cls-2"
					d="M52.47,33.97c0,2.66,0,5.32,0,7.98,0,.32-.07.46-.42.43-.37-.03-.75-.01-1.12,0-.21,0-.31-.07-.29-.29,0-.08,0-.15,0-.23,0-5.24,0-10.49,0-15.73q0-.5.51-.5c.34,0,.68.01,1.02,0,.23-.01.31.06.3.3-.01.69,0,1.39,0,2.08,0,1.99,0,3.98,0,5.97Z" />
				<path class="cls-2"
					d="M56.1,34.07c0,2.63,0,5.26,0,7.88,0,.32-.08.46-.42.43-.38-.03-.77-.01-1.15,0-.18,0-.27-.07-.26-.25,0-.09,0-.18,0-.26,0-5.23,0-10.47,0-15.7,0-.31.07-.43.4-.41.35.03.7.02,1.05,0,.31-.02.39.1.39.4,0,2.57,0,5.15,0,7.72,0,.07,0,.13,0,.2Z" />
				<path class="cls-2"
					d="M1.83,34.47c0,2.5,0,4.99,0,7.49,0,.33-.09.46-.43.43-.37-.03-.75-.01-1.12,0-.21,0-.3-.08-.29-.29,0-.11,0-.22,0-.33,0-4.91,0-9.81,0-14.72q0-.49.48-.49c.32,0,.64.02.96,0,.3-.02.4.09.39.39-.01,2.4,0,4.8,0,7.19,0,.11,0,.22,0,.33Z" />
				<path class="cls-2"
					d="M59.73,34.8c0,2.39,0,4.77,0,7.16,0,.32-.07.46-.42.43-.37-.03-.75-.01-1.12,0-.21,0-.31-.07-.29-.29,0-.1,0-.2,0-.3,0-4.72,0-9.43,0-14.15q0-.44.42-.44c.34,0,.68.02,1.02,0,.31-.02.39.1.39.4,0,2.4,0,4.79,0,7.19Z" />
				<path class="cls-2"
					d="M61.67,36.55c0-1.8,0-3.61,0-5.41,0-.33.09-.46.43-.43.36.03.73.01,1.09,0,.18,0,.26.08.25.26,0,.07,0,.13,0,.2,0,3.59,0,7.17,0,10.76,0,.45,0,.45-.45.46-.32,0-.64-.01-.96,0-.27.02-.36-.09-.36-.36.01-1.32,0-2.64,0-3.96,0-.51,0-1.01,0-1.52Z" />
			</g>
		</g>
		<text class="cls-3" transform="translate(67.82 63.79)">
			<tspan class="cls-1" x="0" y="0">T</tspan>
			<tspan x="38.22" y="0">an</tspan>
			<tspan class="cls-4" x="118.19" y="0">g</tspan>
			<tspan x="155.13" y="0">oCloud</tspan>
		</text>
	</g>
</svg>
