<?xml version="1.0" encoding="UTF-8"?>
<svg xmlns="http://www.w3.org/2000/svg" version="1.1" viewBox="0 0 512 512">
  <defs>
    <style>
      .cls-1 {
        fill: #fff;
      }
    </style>
  </defs>
  <!-- Generator: Adobe Illustrator 28.7.2, SVG Export Plug-In . SVG Version: 1.2.0 Build 154)  -->
  <g>
    <g id="Layer_1">
      <path class="cls-1" d="M427.1,230.1c8-3.5,16.1-5.2,24.8-5.5,22.2,0,38.9,9,51.1,27.3,13.5,20.3,11.6,43.4-2.2,62.7-14.1,19.6-28.6,39.2-43.4,58.5-8.7,11.6-18.6,21.5-32.2,27.6-11.9,5.1-23.8,5.5-35.7.6-17.4-6.8-34.4-14.1-52.1-20.6-15.8-6.1-32.8-9-49.5-10.9-4.5-.6-9-1-13.5-1.9-8.7-1.9-14.8-10.3-14.8-19v-217.4c0-15.1,13.8-28.9,28.6-28.6,36.7.6,70.4,10.9,99.4,34.4,19.6,16.1,31.5,37,37,61.4,2.2,10.3,3.2,20.3,2.2,31.5h0s.3-.3.3-.3Z"/>
      <path class="cls-1" d="M106.5,408.6c-9,0-14.8-3.2-18.7-9-28-39.9-56-79.8-83.9-119.9-7.1-10.3-4.8-21.9,5.5-29.3,6.1-4.2,12.2-8.4,18-12.9,3.2-2.2,4.5-1.9,6.8,1.3,34.1,48.6,67.8,97.1,101.9,145.7,2.6,3.9,2.6,4.5-1.3,7.4-6.1,4.2-11.9,8.7-18.3,12.5-3.5,2.2-7.7,3.5-10,4.5h0v-.3h0ZM111.6,368.4c0-2.9-2.2-5.1-5.2-5.5-2.9,0-5.5,2.2-5.5,5.1s2.2,5.1,5.2,5.1,5.5-2.2,5.5-5.1h0v.3ZM80.8,324.3c0-2.9-2.6-5.1-5.5-5.1s-5.2,2.2-5.2,5.1,2.2,5.1,5.2,5.1,5.5-2.6,5.5-5.5h0v.3ZM55.1,321.1c-2.9,0-5.2,2.2-5.2,5.1s1.9,5.5,5.2,5.5,5.2-2.2,5.5-5.1c0-2.9-2.6-5.5-5.2-5.5h-.3ZM49.9,280.3c0-2.9-2.6-5.1-5.8-4.8-2.9,0-5.2,2.6-4.8,5.5,0,2.9,2.9,5.1,5.5,5.1s5.2-2.9,5.2-5.5h0v-.3h0ZM24.2,288c2.9,0,5.5-2.6,5.5-5.5s-2.6-5.1-5.1-5.1-5.1,1.9-5.1,4.8,1.9,5.5,5.1,5.5h0l-.3.3h0ZM91.1,370.6c0-2.6-2.6-5.1-5.2-5.1s-5.5,2.6-5.2,5.5c0,2.9,2.2,5.1,5.5,4.8,2.9,0,5.2-2.2,5.2-5.1h-.3ZM59.9,307.6c3.2,0,5.1-1.9,5.1-5.1s-2.2-5.5-5.2-5.5-5.2,2.6-5.2,5.5,2.2,5.1,5.2,5.1h0ZM44.8,304.7c0-3.2-1.9-5.1-4.8-5.5s-5.8,2.2-5.8,5.1,2.6,5.1,5.2,5.1,5.2-1.9,5.2-5.1h.3v.3h0ZM70.2,353.9c2.6,0,5.2-1.6,5.5-4.5,0-3.2-1.3-5.5-4.2-6.1-3.2,0-6.1,1.6-6.1,4.8s2.2,5.5,4.8,5.8h0ZM95.9,346.5c0-2.9-2.2-5.1-5.2-5.1s-5.5,2.2-5.5,5.5,2.2,5.1,5.2,5.1,5.2-2.2,5.2-5.1h0l.3-.3Z"/>
      <path class="cls-1" d="M204.6,119.5c3.9,4.8,7.4,9.6,11.2,14.5,2.6,3.5,5.1,7.4,8,10.3,5.1,4.8,5.8,10.9,6.1,17.4.6,10.6,1.6,21.5,2.6,32.2.6,10,1.3,19.9,2.2,29.6.6,10.6,1.6,21.2,2.6,31.8.6,10,1.3,19.9,2.2,29.6.6,10.6,1.6,21.2,2.6,31.8.6,6.1,1,12.5,1.3,18.6,0,1.3-.6,2.9-1,4.5-2.2,7.4-4.2,14.8-6.4,22.2,0,.6-1,1.3-1.6,2.2-.6-.6-1.3-1.3-1.3-2.2-1-8-2.2-16.1-3.2-24.1-1.3-11.6-2.9-23.1-4.2-34.7-1.3-10-2.6-19.6-3.5-29.6-1.3-10-2.6-19.9-3.9-29.9-1.3-9.6-2.2-19.3-3.5-29.3-1.3-11.2-2.9-22.8-4.2-34.1-1.3-9.7-2.6-19-3.5-28.3-1.3-10-2.2-19.9-3.5-29.9v-2.9h1v.3h0Z"/>
      <path class="cls-1" d="M206.5,367.7c0-1-1-1.9-1.3-2.9-8.7-35.1-17.4-70.1-26.4-105.1-10.3-40.8-20.3-81.4-30.6-122.2v-4.8c1.3,1,2.9,1.6,3.9,2.9,7.4,7.4,14.8,14.8,21.9,21.9,1.9,1.9,3.2,4.2,3.9,6.8,5.8,29.3,11.2,58.5,17,87.8,5.1,26.1,10,52.1,15.8,77.8,1.9,8.4.6,16.4-.6,24.4-.6,3.5-1,6.8-1.6,10.3,0,1-.6,1.9-1,2.9h-1v.3h0Z"/>
      <path class="cls-1" d="M96.9,154.2c4.5,3.5,9,7.4,13.8,10.9,5.2,4.2,10.3,8.4,15.4,12.5,1,1,1.9,2.2,2.6,3.5,17.7,54,35.4,108.1,52.7,162.1,1,3.2.6,7.1.6,10.6,0,5.1,0,10.6-.6,15.8,0,1-1,2.2-1.3,3.2-.6-1-1.6-1.6-2.2-2.9-18.6-47.9-37-96.1-55.3-144.1-8.7-22.5-17.4-45-26.1-67.8-.6-1.3-.6-2.6-.6-3.9l1-.6h0v.6h0Z"/>
      <path class="cls-1" d="M154.4,380s0,1-1,1-1.3,0-1.6-1c-.6-.6-.6-1.6-1.3-2.2-33.4-63-67.2-126.1-100.7-189.1,0-.6-.6-1-1-1.6v-1.6h1.6c1,.6,1.9,1.3,3.2,1.9,9,5.8,18,11.9,27,17.7,1.3,1,2.6,2.2,3.2,3.9,22.5,48.2,45,96.5,66.9,144.7,1.3,3.2,1.6,7.1,1.9,10.6.6,5.1.6,10.3,1.3,16.4h0v-.6h.3,0Z"/>
    </g>
  </g>
</svg>