<?xml version="1.0" encoding="UTF-8"?>
<svg id="Layer_2" xmlns="http://www.w3.org/2000/svg" viewBox="0 0 65.22 65.22">
  <defs>
    <style>
      .cls-1 {
        fill: #fff;
      }

      .cls-2 {
        stroke: #000;
        stroke-miterlimit: 10;
      }
    </style>
  </defs>
  <g id="Layer_2-2" data-name="Layer_2">
    <g id="Layer_1-2" data-name="Layer_1">
      <g id="Layer_2-3" data-name="Layer_2">
        <g id="Layer_2-2">
          <rect class="cls-2" x=".5" y=".5" width="64.22" height="64.22"/>
          <g id="Layer_4">
            <path d="M13.34.5h38.53c7.09,0,12.84,5.75,12.84,12.84v38.56c0,7.09-5.75,12.84-12.84,12.84H13.31c-7.09,0-12.84-5.75-12.84-12.84V13.34C.47,6.25,6.22.5,13.31.5h.03Z"/>
            <g id="Layer_2-2-2">
              <g id="Layer_1-2">
                <g>
                  <path class="cls-1" d="M50.44,29.23c.84-.37,1.67-.54,2.58-.57,2.31,0,4.05.94,5.32,2.84,1.4,2.11,1.2,4.52-.23,6.52-1.47,2.04-2.98,4.08-4.52,6.09-.9,1.2-1.94,2.24-3.34,2.88-1.24.54-2.48.57-3.71.07-1.81-.7-3.58-1.47-5.42-2.14-1.64-.64-3.41-.94-5.15-1.14-.47-.07-.94-.1-1.4-.2-.9-.2-1.54-1.07-1.54-1.97v-22.61c0-1.57,1.44-3.01,2.98-2.98,3.81.07,7.32,1.14,10.33,3.58,2.04,1.67,3.28,3.85,3.85,6.39.23,1.07.33,2.11.23,3.28h0l.03-.03Z"/>
                  <path class="cls-1" d="M17.09,47.79c-.94-.03-1.54-.33-1.94-.94-2.91-4.15-5.82-8.29-8.73-12.48-.74-1.07-.5-2.27.57-3.04.64-.43,1.27-.87,1.87-1.34.33-.23.47-.2.7.13,3.55,5.05,7.06,10.1,10.6,15.15.27.4.27.47-.13.77-.64.43-1.24.9-1.91,1.3-.37.23-.8.37-1.04.47h0v-.03ZM17.62,43.61c0-.3-.23-.54-.54-.57-.3,0-.57.23-.57.54s.23.54.54.54.57-.23.57-.54h0v.03ZM14.41,39.03c0-.3-.27-.54-.57-.54s-.54.23-.54.54.23.54.54.54.57-.27.57-.57h0v.03ZM11.74,38.7c-.3,0-.54.23-.54.54s.2.57.54.57.54-.23.57-.54c0-.3-.27-.57-.54-.57h-.03ZM11.2,34.45c0-.3-.27-.54-.6-.5-.3,0-.54.27-.5.57,0,.3.3.54.57.54s.54-.3.54-.57h0v-.03ZM8.53,35.25c.3,0,.57-.27.57-.57s-.27-.54-.54-.54-.54.2-.54.5.2.57.54.57h0l-.03.03ZM15.48,43.85c0-.27-.27-.54-.54-.54s-.57.27-.54.57c0,.3.23.54.57.5.3,0,.54-.23.54-.54h-.03ZM12.24,37.29c.33,0,.54-.2.54-.54s-.23-.57-.54-.57-.54.27-.54.57.23.54.54.54h0ZM10.67,36.99c0-.33-.2-.54-.5-.57s-.6.23-.6.54.27.54.54.54.54-.2.54-.54h0l.03.03ZM13.31,42.11c.27,0,.54-.17.57-.47.03-.33-.13-.57-.43-.64-.33,0-.64.17-.64.5s.23.57.5.6h0ZM15.99,41.34c0-.3-.23-.54-.54-.54s-.57.23-.57.57.23.54.54.54.54-.23.54-.54h0l.03-.03Z"/>
                  <path class="cls-1" d="M27.29,17.72c.4.5.77,1,1.17,1.51.27.37.54.77.84,1.07.54.5.6,1.14.64,1.81.07,1.1.17,2.24.27,3.34.07,1.04.13,2.07.23,3.08.07,1.1.17,2.21.27,3.31.07,1.04.13,2.07.23,3.08.07,1.1.17,2.21.27,3.31.07.64.1,1.3.13,1.94,0,.13-.07.3-.1.47-.23.77-.43,1.54-.67,2.31,0,.07-.1.13-.17.23-.07-.07-.13-.13-.13-.23-.1-.84-.23-1.67-.33-2.51-.13-1.2-.3-2.41-.43-3.61-.13-1.04-.27-2.04-.37-3.08-.13-1.04-.27-2.07-.4-3.11-.13-1-.23-2.01-.37-3.04-.13-1.17-.3-2.37-.43-3.55-.13-1-.27-1.97-.37-2.94-.13-1.04-.23-2.07-.37-3.11v-.3h.1v.03Z"/>
                  <path class="cls-1" d="M27.49,43.55c-.03-.1-.1-.2-.13-.3-.9-3.65-1.81-7.29-2.74-10.94-1.07-4.25-2.11-8.46-3.18-12.71-.03-.17,0-.33,0-.5.13.1.3.17.4.3.77.77,1.54,1.54,2.27,2.27.2.2.33.43.4.7.6,3.04,1.17,6.09,1.77,9.13.54,2.71,1.04,5.42,1.64,8.09.2.87.07,1.71-.07,2.54-.07.37-.1.7-.17,1.07,0,.1-.07.2-.1.3h-.1v.03Z"/>
                  <path class="cls-1" d="M16.09,21.34c.47.37.94.77,1.44,1.14.54.43,1.07.87,1.61,1.3.1.1.2.23.27.37,1.84,5.62,3.68,11.24,5.49,16.86.1.33.07.74.07,1.1,0,.54,0,1.1-.07,1.64,0,.1-.1.23-.13.33-.07-.1-.17-.17-.23-.3-1.94-4.98-3.85-10-5.75-14.98-.9-2.34-1.81-4.68-2.71-7.06-.07-.13-.07-.27-.07-.4l.1-.07h0v.07h0Z"/>
                  <path class="cls-1" d="M22.07,44.82s0,.1-.1.1-.13-.03-.17-.1c-.07-.07-.07-.17-.13-.23-3.48-6.56-6.99-13.11-10.47-19.67,0-.07-.07-.1-.1-.17v-.17h.17c.1.07.2.13.33.2.94.6,1.87,1.24,2.81,1.84.13.1.27.23.33.4,2.34,5.02,4.68,10.03,6.96,15.05.13.33.17.74.2,1.1.07.54.07,1.07.13,1.71h0v-.07h.03Z"/>
                </g>
                <g>
                  <path class="cls-1" d="M50.44,29.23c.84-.37,1.67-.54,2.58-.57,2.31,0,4.05.94,5.32,2.84,1.4,2.11,1.2,4.52-.23,6.52-1.47,2.04-2.98,4.08-4.52,6.09-.9,1.2-1.94,2.24-3.34,2.88-1.24.54-2.48.57-3.71.07-1.81-.7-3.58-1.47-5.42-2.14-1.64-.64-3.41-.94-5.15-1.14-.47-.07-.94-.1-1.4-.2-.9-.2-1.54-1.07-1.54-1.97v-22.61c0-1.57,1.44-3.01,2.98-2.98,3.81.07,7.32,1.14,10.33,3.58,2.04,1.67,3.28,3.85,3.85,6.39.23,1.07.33,2.11.23,3.28h0l.03-.03Z"/>
                  <path class="cls-1" d="M17.09,47.79c-.94-.03-1.54-.33-1.94-.94-2.91-4.15-5.82-8.29-8.73-12.48-.74-1.07-.5-2.27.57-3.04.64-.43,1.27-.87,1.87-1.34.33-.23.47-.2.7.13,3.55,5.05,7.06,10.1,10.6,15.15.27.4.27.47-.13.77-.64.43-1.24.9-1.91,1.3-.37.23-.8.37-1.04.47h0v-.03ZM17.62,43.61c0-.3-.23-.54-.54-.57-.3,0-.57.23-.57.54s.23.54.54.54.57-.23.57-.54h0v.03ZM14.41,39.03c0-.3-.27-.54-.57-.54s-.54.23-.54.54.23.54.54.54.57-.27.57-.57h0v.03ZM11.74,38.7c-.3,0-.54.23-.54.54s.2.57.54.57.54-.23.57-.54c0-.3-.27-.57-.54-.57h-.03ZM11.2,34.45c0-.3-.27-.54-.6-.5-.3,0-.54.27-.5.57,0,.3.3.54.57.54s.54-.3.54-.57h0v-.03ZM8.53,35.25c.3,0,.57-.27.57-.57s-.27-.54-.54-.54-.54.2-.54.5.2.57.54.57h0l-.03.03ZM15.48,43.85c0-.27-.27-.54-.54-.54s-.57.27-.54.57c0,.3.23.54.57.5.3,0,.54-.23.54-.54h-.03ZM12.24,37.29c.33,0,.54-.2.54-.54s-.23-.57-.54-.57-.54.27-.54.57.23.54.54.54h0ZM10.67,36.99c0-.33-.2-.54-.5-.57s-.6.23-.6.54.27.54.54.54.54-.2.54-.54h0l.03.03ZM13.31,42.11c.27,0,.54-.17.57-.47.03-.33-.13-.57-.43-.64-.33,0-.64.17-.64.5s.23.57.5.6h0ZM15.99,41.34c0-.3-.23-.54-.54-.54s-.57.23-.57.57.23.54.54.54.54-.23.54-.54h0l.03-.03Z"/>
                  <path class="cls-1" d="M27.29,17.72c.4.5.77,1,1.17,1.51.27.37.54.77.84,1.07.54.5.6,1.14.64,1.81.07,1.1.17,2.24.27,3.34.07,1.04.13,2.07.23,3.08.07,1.1.17,2.21.27,3.31.07,1.04.13,2.07.23,3.08.07,1.1.17,2.21.27,3.31.07.64.1,1.3.13,1.94,0,.13-.07.3-.1.47-.23.77-.43,1.54-.67,2.31,0,.07-.1.13-.17.23-.07-.07-.13-.13-.13-.23-.1-.84-.23-1.67-.33-2.51-.13-1.2-.3-2.41-.43-3.61-.13-1.04-.27-2.04-.37-3.08-.13-1.04-.27-2.07-.4-3.11-.13-1-.23-2.01-.37-3.04-.13-1.17-.3-2.37-.43-3.55-.13-1-.27-1.97-.37-2.94-.13-1.04-.23-2.07-.37-3.11v-.3h.1v.03Z"/>
                  <path class="cls-1" d="M27.49,43.55c-.03-.1-.1-.2-.13-.3-.9-3.65-1.81-7.29-2.74-10.94-1.07-4.25-2.11-8.46-3.18-12.71-.03-.17,0-.33,0-.5.13.1.3.17.4.3.77.77,1.54,1.54,2.27,2.27.2.2.33.43.4.7.6,3.04,1.17,6.09,1.77,9.13.54,2.71,1.04,5.42,1.64,8.09.2.87.07,1.71-.07,2.54-.07.37-.1.7-.17,1.07,0,.1-.07.2-.1.3h-.1v.03Z"/>
                  <path class="cls-1" d="M16.09,21.34c.47.37.94.77,1.44,1.14.54.43,1.07.87,1.61,1.3.1.1.2.23.27.37,1.84,5.62,3.68,11.24,5.49,16.86.1.33.07.74.07,1.1,0,.54,0,1.1-.07,1.64,0,.1-.1.23-.13.33-.07-.1-.17-.17-.23-.3-1.94-4.98-3.85-10-5.75-14.98-.9-2.34-1.81-4.68-2.71-7.06-.07-.13-.07-.27-.07-.4l.1-.07h0v.07h0Z"/>
                  <path class="cls-1" d="M22.07,44.82s0,.1-.1.1-.13-.03-.17-.1c-.07-.07-.07-.17-.13-.23-3.48-6.56-6.99-13.11-10.47-19.67,0-.07-.07-.1-.1-.17v-.17h.17c.1.07.2.13.33.2.94.6,1.87,1.24,2.81,1.84.13.1.27.23.33.4,2.34,5.02,4.68,10.03,6.96,15.05.13.33.17.74.2,1.1.07.54.07,1.07.13,1.71h0v-.07h.03Z"/>
                </g>
              </g>
            </g>
          </g>
        </g>
      </g>
    </g>
  </g>
</svg>