<?xml version="1.0" encoding="UTF-8"?>
<svg id="Layer_1" xmlns="http://www.w3.org/2000/svg" viewBox="0 0 512.35 305.81">
  <defs>
    <style>
      .cls-1 {
        fill: #fff;
      }
    </style>
  </defs>
  <path class="cls-1" d="M427.28,127.02c8.04-3.54,16.08-5.15,24.76-5.47,22.19,0,38.91,9,51.13,27.33,13.51,20.26,11.58,43.41-2.25,62.71-14.15,19.62-28.62,39.23-43.41,58.52-8.68,11.58-18.65,21.54-32.16,27.65-11.9,5.15-23.8,5.47-35.69.64-17.36-6.75-34.41-14.15-52.09-20.58-15.76-6.11-32.8-9-49.52-10.93-4.5-.64-9-.96-13.51-1.93-8.68-1.93-14.79-10.29-14.79-18.97V28.62c0-15.11,13.83-28.94,28.62-28.62,36.66.64,70.42,10.93,99.36,34.41,19.62,16.08,31.51,36.98,36.98,61.42,2.25,10.29,3.22,20.26,2.25,31.51h0l.32-.32Z"/>
  <path class="cls-1" d="M106.68,305.49c-9,0-14.79-3.22-18.65-9-27.98-39.87-55.95-79.75-83.93-119.94-7.07-10.29-4.82-21.87,5.47-29.26,6.11-4.18,12.22-8.36,18.01-12.86,3.22-2.25,4.5-1.93,6.75,1.29,34.09,48.56,67.85,97.11,101.94,145.67,2.57,3.86,2.57,4.5-1.29,7.4-6.11,4.18-11.9,8.68-18.33,12.54-3.54,2.25-7.72,3.54-9.97,4.5h0v-.32ZM111.82,265.3c0-2.89-2.25-5.15-5.15-5.47-2.89,0-5.47,2.25-5.47,5.15s2.25,5.15,5.15,5.15,5.47-2.25,5.47-5.15h0v.32ZM80.95,221.24c0-2.89-2.57-5.15-5.47-5.15s-5.15,2.25-5.15,5.15,2.25,5.15,5.15,5.15,5.47-2.57,5.47-5.47h0v.32ZM55.23,218.03c-2.89,0-5.15,2.25-5.15,5.15s1.93,5.47,5.15,5.47,5.15-2.25,5.47-5.15c0-2.89-2.57-5.47-5.15-5.47h-.32ZM50.08,177.19c0-2.89-2.57-5.15-5.79-4.82-2.89,0-5.15,2.57-4.82,5.47,0,2.89,2.89,5.15,5.47,5.15s5.15-2.89,5.15-5.47h0v-.32ZM24.36,184.91c2.89,0,5.47-2.57,5.47-5.47s-2.57-5.15-5.15-5.15-5.15,1.93-5.15,4.82,1.93,5.47,5.15,5.47h0l-.32.32ZM91.24,267.55c0-2.57-2.57-5.15-5.15-5.15s-5.47,2.57-5.15,5.47c0,2.89,2.25,5.15,5.47,4.82,2.89,0,5.15-2.25,5.15-5.15h-.32ZM60.05,204.52c3.22,0,5.15-1.93,5.15-5.15s-2.25-5.47-5.15-5.47-5.15,2.57-5.15,5.47,2.25,5.15,5.15,5.15h0ZM44.94,201.63c0-3.22-1.93-5.15-4.82-5.47s-5.79,2.25-5.79,5.15,2.57,5.15,5.15,5.15,5.15-1.93,5.15-5.15h.32v.32ZM70.34,250.83c2.57,0,5.15-1.61,5.47-4.5,0-3.22-1.29-5.47-4.18-6.11-3.22,0-6.11,1.61-6.11,4.82s2.25,5.47,4.82,5.79h0ZM96.07,243.43c0-2.89-2.25-5.15-5.15-5.15s-5.47,2.25-5.47,5.47,2.25,5.15,5.15,5.15,5.15-2.25,5.15-5.15h0l.32-.32Z"/>
  <path class="cls-1" d="M204.75,16.41c3.86,4.82,7.4,9.65,11.25,14.47,2.57,3.54,5.15,7.4,8.04,10.29,5.15,4.82,5.79,10.93,6.11,17.36.64,10.61,1.61,21.54,2.57,32.16.64,9.97,1.29,19.94,2.25,29.58.64,10.61,1.61,21.22,2.57,31.83.64,9.97,1.29,19.94,2.25,29.58.64,10.61,1.61,21.22,2.57,31.83.64,6.11.96,12.54,1.29,18.65,0,1.29-.64,2.89-.96,4.5-2.25,7.4-4.18,14.79-6.43,22.19,0,.64-.96,1.29-1.61,2.25-.64-.64-1.29-1.29-1.29-2.25-.96-8.04-2.25-16.08-3.22-24.12-1.29-11.58-2.89-23.15-4.18-34.73-1.29-9.97-2.57-19.62-3.54-29.58-1.29-9.97-2.57-19.94-3.86-29.91-1.29-9.65-2.25-19.29-3.54-29.26-1.29-11.25-2.89-22.83-4.18-34.09-1.29-9.65-2.57-18.97-3.54-28.3-1.29-9.97-2.25-19.94-3.54-29.91v-2.89h.96v.32Z"/>
  <path class="cls-1" d="M206.68,264.65c0-.96-.96-1.93-1.29-2.89-8.68-35.05-17.36-70.1-26.37-105.15-10.29-40.84-20.26-81.36-30.55-122.19v-4.82c1.29.96,2.89,1.61,3.86,2.89,7.4,7.4,14.79,14.79,21.87,21.87,1.93,1.93,3.22,4.18,3.86,6.75,5.79,29.26,11.25,58.52,17.04,87.79,5.15,26.05,9.97,52.09,15.76,77.82,1.93,8.36.64,16.4-.64,24.44-.64,3.54-.96,6.75-1.61,10.29,0,.96-.64,1.93-.96,2.89h-.96v.32Z"/>
  <path class="cls-1" d="M97.03,51.13c4.5,3.54,9,7.4,13.83,10.93,5.15,4.18,10.29,8.36,15.44,12.54.96.96,1.93,2.25,2.57,3.54,17.69,54.02,35.37,108.05,52.74,162.07.96,3.22.64,7.07.64,10.61,0,5.15,0,10.61-.64,15.76,0,.96-.96,2.25-1.29,3.22-.64-.96-1.61-1.61-2.25-2.89-18.65-47.91-36.98-96.15-55.31-144.06-8.68-22.51-17.36-45.02-26.05-67.85-.64-1.29-.64-2.57-.64-3.86l.96-.64h0v.64h0Z"/>
  <path class="cls-1" d="M154.59,276.87s0,.96-.96.96-1.29,0-1.61-.96c-.64-.64-.64-1.61-1.29-2.25-33.44-63.03-67.21-126.05-100.65-189.08,0-.64-.64-.96-.96-1.61v-1.61h1.61c.96.64,1.93,1.29,3.22,1.93,9,5.79,18.01,11.9,27.01,17.69,1.29.96,2.57,2.25,3.22,3.86,22.51,48.23,45.02,96.47,66.89,144.7,1.29,3.22,1.61,7.07,1.93,10.61.64,5.15.64,10.29,1.29,16.4h0v-.64s.32,0,.32,0Z"/>
</svg>