<?xml version="1.0" encoding="UTF-8"?>
<svg id="Layer_2" xmlns="http://www.w3.org/2000/svg" viewBox="0 0 513 513">
  <defs>
    <style>
      .cls-1 {
        fill: #fff;
      }

      .cls-2 {
        stroke: #000;
        stroke-miterlimit: 10;
      }
    </style>
  </defs>
  <g id="Layer_2-2" data-name="Layer_2">
    <rect class="cls-2" x=".5" y=".5" width="512" height="512"/>
    <g id="Layer_4">
      <rect x=".5" y=".5" width="512" height="512" rx="102.3" ry="102.3"/>
      <g id="Layer_2-2">
        <g id="Layer_1-2">
          <g>
            <path class="cls-1" d="M398.55,229.7c6.7-2.85,13.4-4.35,20.45-4.4,18.35-.2,32.15,7.6,42.35,22.75,11.25,16.75,9.7,36.05-1.85,52.05-11.8,16.35-23.75,32.6-35.9,48.65-7.2,9.55-15.5,17.95-26.7,22.85-9.75,4.25-19.65,4.45-29.5.55-14.4-5.65-28.65-11.75-43.2-17.2-13.2-4.95-27.1-7.4-41-9.15-3.75-.5-7.55-.8-11.2-1.7-7.1-1.7-12.25-8.4-12.25-15.65v-180.4c0-12.45,11.35-24.1,23.75-23.8,30.4.65,58.4,8.95,82.35,28.4,16.3,13.2,26,30.65,30.75,50.95,1.95,8.4,2.65,16.9,1.9,26v.1h.05Z"/>
            <path class="cls-1" d="M132.65,377.55c-7.5-.4-12.25-2.7-15.55-7.45-23.2-33.1-46.45-66.25-69.6-99.35-6-8.55-4.1-18.25,4.5-24.35,5-3.55,10.05-7.05,15.05-10.6,2.65-1.85,3.7-1.7,5.55,1,28.15,40.25,56.4,80.45,84.55,120.7,2.25,3.15,2.05,3.85-1.1,6.1-5,3.55-9.9,7.3-15.1,10.5-3,1.85-6.45,2.85-8.3,3.6h0v-.15ZM136.95,344.35c0-2.4-1.85-4.3-4.2-4.4-2.4-.1-4.5,1.95-4.5,4.35s1.8,4.25,4.2,4.35c2.55.1,4.45-1.8,4.5-4.3h0ZM111.4,307.75c0-2.5-2-4.35-4.55-4.25-2.4.1-4.2,1.95-4.15,4.35,0,2.4,1.9,4.3,4.25,4.35,2.4,0,4.45-2.05,4.45-4.45h0ZM90.2,305.15c-2.35,0-4.25,1.8-4.35,4.2-.1,2.55,1.7,4.45,4.25,4.5,2.4,0,4.35-1.75,4.45-4.15.1-2.3-2.05-4.55-4.35-4.55h0ZM85.9,271.15c-.05-2.5-2.1-4.25-4.75-4.1-2.45.1-4.15,2.05-3.95,4.5.1,2.3,2.3,4.3,4.5,4.15s4.25-2.35,4.2-4.55h0ZM64.45,277.5c2.35,0,4.55-2.1,4.5-4.4,0-2.3-2-4.25-4.35-4.3-2.45,0-4.3,1.7-4.35,4.1-.1,2.55,1.7,4.55,4.2,4.6h0ZM120.1,346.05c0-2.25-2.2-4.35-4.35-4.35s-4.4,2.1-4.35,4.55c.1,2.45,1.9,4.15,4.45,4.1,2.45,0,4.3-1.9,4.25-4.3ZM94.15,293.8c2.55,0,4.3-1.65,4.35-4.15,0-2.55-1.9-4.6-4.35-4.55-2.25,0-4.3,2.2-4.35,4.4,0,2.4,1.85,4.25,4.3,4.25h.05v.05ZM81.6,291.5c.05-2.55-1.5-4.35-4-4.45s-4.7,1.85-4.7,4.25,2,4.3,4.35,4.35c2.45,0,4.25-1.7,4.35-4.2h0v.05ZM102.5,332.25c2.2.2,4.3-1.45,4.55-3.7.35-2.55-1.15-4.6-3.5-4.95-2.7-.35-4.95,1.3-5.15,3.9-.15,2.2,1.75,4.45,4,4.7h.05l.05.05ZM124.1,326.1c0-2.45-1.8-4.3-4.25-4.35-2.5,0-4.45,1.9-4.4,4.4,0,2.45,1.9,4.25,4.35,4.2,2.45,0,4.3-1.8,4.3-4.3h0v.05Z"/>
            <path class="cls-1" d="M214.1,137.95c3.1,3.95,6.25,7.9,9.35,11.9,2.25,2.85,4.15,6.05,6.7,8.5,4.25,4.1,4.8,9.15,5.1,14.5.5,8.9,1.3,17.85,2,26.75.6,8.2,1.15,16.4,1.8,24.6.65,8.8,1.35,17.65,2,26.5.6,8.2,1.2,16.4,1.8,24.6.65,8.8,1.35,17.65,2,26.5.4,5.1.85,10.3,1.1,15.4.05,1.2-.55,2.45-.85,3.65-1.8,6.15-3.6,12.25-5.45,18.4-.2.65-.85,1.2-1.3,1.8-.4-.6-1-1.2-1.1-1.85-.9-6.7-1.75-13.45-2.55-20.1-1.2-9.55-2.35-19.15-3.5-28.7-1-8.15-2-16.25-3.05-24.4-1.05-8.2-2.05-16.5-3.1-24.7-1-8.05-1.95-16.1-2.9-24.2-1.15-9.4-2.3-18.8-3.45-28.25-1-7.9-2.05-15.7-3.05-23.6-1-8.2-1.95-16.5-2.85-24.75-.1-.75.15-1.5.2-2.35.35-.05.65-.1.9-.15h.05l.15-.05Z"/>
            <path class="cls-1" d="M215.6,343.7c-.35-.8-.75-1.6-1-2.4-7.3-29.05-14.5-58.1-21.75-87.1-8.45-33.75-16.85-67.55-25.2-101.3-.35-1.25-.15-2.65-.2-3.95,1.15.75,2.4,1.35,3.3,2.3,6.1,6.05,12.15,12.25,18.2,18.25,1.7,1.65,2.7,3.35,3.15,5.7,4.7,24.3,9.45,48.55,14.25,72.8,4.25,21.55,8.3,43.15,12.95,64.55,1.5,7,.4,13.6-.65,20.3-.45,2.85-.9,5.65-1.45,8.55-.15.8-.5,1.6-.75,2.35h-.9.05v-.05Z"/>
            <path class="cls-1" d="M124.85,166.5c3.8,3.05,7.6,6.05,11.35,9.1,4.3,3.5,8.6,6.9,12.85,10.45.85.75,1.7,1.9,2.05,3,14.7,44.8,29.3,89.55,43.8,134.45.85,2.7.55,5.85.55,8.8,0,4.35-.25,8.7-.55,13-.05.9-.7,1.85-1.1,2.75-.6-.75-1.45-1.45-1.8-2.35-15.35-39.8-30.6-79.65-45.9-119.5-7.2-18.75-14.4-37.45-21.6-56.2-.4-1-.4-2.1-.6-3.2l.9-.4h0l.05.1Z"/>
            <path class="cls-1" d="M172.5,353.75s-.25.8-.7.9c-.4.1-1.1-.35-1.45-.75-.45-.55-.65-1.25-1.05-1.9-27.85-52.3-55.65-104.6-83.5-156.9-.25-.5-.6-.9-.7-1.45-.1-.45-.15-1.15.1-1.4s1.05-.2,1.4-.05c.85.45,1.7,1.05,2.55,1.6,7.5,4.9,15,9.75,22.4,14.75,1.15.75,2.25,1.9,2.75,3.1,18.6,39.9,37.2,79.9,55.6,119.9,1.2,2.6,1.25,5.75,1.5,8.7.45,4.3.65,8.65,1,13.55h.05l.05-.05Z"/>
          </g>
          <g>
            <path class="cls-1" d="M398.55,229.7c6.7-2.85,13.4-4.35,20.45-4.4,18.35-.2,32.15,7.6,42.35,22.75,11.25,16.75,9.7,36.05-1.85,52.05-11.8,16.35-23.75,32.6-35.9,48.65-7.2,9.55-15.5,17.95-26.7,22.85-9.75,4.25-19.65,4.45-29.5.55-14.4-5.65-28.65-11.75-43.2-17.2-13.2-4.95-27.1-7.4-41-9.15-3.75-.5-7.55-.8-11.2-1.7-7.1-1.7-12.25-8.4-12.25-15.65v-180.4c0-12.45,11.35-24.1,23.75-23.8,30.4.65,58.4,8.95,82.35,28.4,16.3,13.2,26,30.65,30.75,50.95,1.95,8.4,2.65,16.9,1.9,26v.1h.05Z"/>
            <path class="cls-1" d="M132.65,377.55c-7.5-.4-12.25-2.7-15.55-7.45-23.2-33.1-46.45-66.25-69.6-99.35-6-8.55-4.1-18.25,4.5-24.35,5-3.55,10.05-7.05,15.05-10.6,2.65-1.85,3.7-1.7,5.55,1,28.15,40.25,56.4,80.45,84.55,120.7,2.25,3.15,2.05,3.85-1.1,6.1-5,3.55-9.9,7.3-15.1,10.5-3,1.85-6.45,2.85-8.3,3.6h0v-.15ZM136.95,344.35c0-2.4-1.85-4.3-4.2-4.4-2.4-.1-4.5,1.95-4.5,4.35s1.8,4.25,4.2,4.35c2.55.1,4.45-1.8,4.5-4.3h0ZM111.4,307.75c0-2.5-2-4.35-4.55-4.25-2.4.1-4.2,1.95-4.15,4.35,0,2.4,1.9,4.3,4.25,4.35,2.4,0,4.45-2.05,4.45-4.45h0ZM90.2,305.15c-2.35,0-4.25,1.8-4.35,4.2-.1,2.55,1.7,4.45,4.25,4.5,2.4,0,4.35-1.75,4.45-4.15.1-2.3-2.05-4.55-4.35-4.55h0ZM85.9,271.15c-.05-2.5-2.1-4.25-4.75-4.1-2.45.1-4.15,2.05-3.95,4.5.1,2.3,2.3,4.3,4.5,4.15s4.25-2.35,4.2-4.55h0ZM64.45,277.5c2.35,0,4.55-2.1,4.5-4.4,0-2.3-2-4.25-4.35-4.3-2.45,0-4.3,1.7-4.35,4.1-.1,2.55,1.7,4.55,4.2,4.6h0ZM120.1,346.05c0-2.25-2.2-4.35-4.35-4.35s-4.4,2.1-4.35,4.55c.1,2.45,1.9,4.15,4.45,4.1,2.45,0,4.3-1.9,4.25-4.3ZM94.15,293.8c2.55,0,4.3-1.65,4.35-4.15,0-2.55-1.9-4.6-4.35-4.55-2.25,0-4.3,2.2-4.35,4.4,0,2.4,1.85,4.25,4.3,4.25h.05v.05ZM81.6,291.5c.05-2.55-1.5-4.35-4-4.45s-4.7,1.85-4.7,4.25,2,4.3,4.35,4.35c2.45,0,4.25-1.7,4.35-4.2h0v.05ZM102.5,332.25c2.2.2,4.3-1.45,4.55-3.7.35-2.55-1.15-4.6-3.5-4.95-2.7-.35-4.95,1.3-5.15,3.9-.15,2.2,1.75,4.45,4,4.7h.05l.05.05ZM124.1,326.1c0-2.45-1.8-4.3-4.25-4.35-2.5,0-4.45,1.9-4.4,4.4,0,2.45,1.9,4.25,4.35,4.2,2.45,0,4.3-1.8,4.3-4.3h0v.05Z"/>
            <path class="cls-1" d="M214.1,137.95c3.1,3.95,6.25,7.9,9.35,11.9,2.25,2.85,4.15,6.05,6.7,8.5,4.25,4.1,4.8,9.15,5.1,14.5.5,8.9,1.3,17.85,2,26.75.6,8.2,1.15,16.4,1.8,24.6.65,8.8,1.35,17.65,2,26.5.6,8.2,1.2,16.4,1.8,24.6.65,8.8,1.35,17.65,2,26.5.4,5.1.85,10.3,1.1,15.4.05,1.2-.55,2.45-.85,3.65-1.8,6.15-3.6,12.25-5.45,18.4-.2.65-.85,1.2-1.3,1.8-.4-.6-1-1.2-1.1-1.85-.9-6.7-1.75-13.45-2.55-20.1-1.2-9.55-2.35-19.15-3.5-28.7-1-8.15-2-16.25-3.05-24.4-1.05-8.2-2.05-16.5-3.1-24.7-1-8.05-1.95-16.1-2.9-24.2-1.15-9.4-2.3-18.8-3.45-28.25-1-7.9-2.05-15.7-3.05-23.6-1-8.2-1.95-16.5-2.85-24.75-.1-.75.15-1.5.2-2.35.35-.05.65-.1.9-.15h.05l.15-.05Z"/>
            <path class="cls-1" d="M215.6,343.7c-.35-.8-.75-1.6-1-2.4-7.3-29.05-14.5-58.1-21.75-87.1-8.45-33.75-16.85-67.55-25.2-101.3-.35-1.25-.15-2.65-.2-3.95,1.15.75,2.4,1.35,3.3,2.3,6.1,6.05,12.15,12.25,18.2,18.25,1.7,1.65,2.7,3.35,3.15,5.7,4.7,24.3,9.45,48.55,14.25,72.8,4.25,21.55,8.3,43.15,12.95,64.55,1.5,7,.4,13.6-.65,20.3-.45,2.85-.9,5.65-1.45,8.55-.15.8-.5,1.6-.75,2.35h-.9.05v-.05Z"/>
            <path class="cls-1" d="M124.85,166.5c3.8,3.05,7.6,6.05,11.35,9.1,4.3,3.5,8.6,6.9,12.85,10.45.85.75,1.7,1.9,2.05,3,14.7,44.8,29.3,89.55,43.8,134.45.85,2.7.55,5.85.55,8.8,0,4.35-.25,8.7-.55,13-.05.9-.7,1.85-1.1,2.75-.6-.75-1.45-1.45-1.8-2.35-15.35-39.8-30.6-79.65-45.9-119.5-7.2-18.75-14.4-37.45-21.6-56.2-.4-1-.4-2.1-.6-3.2l.9-.4h0l.05.1Z"/>
            <path class="cls-1" d="M172.5,353.75s-.25.8-.7.9c-.4.1-1.1-.35-1.45-.75-.45-.55-.65-1.25-1.05-1.9-27.85-52.3-55.65-104.6-83.5-156.9-.25-.5-.6-.9-.7-1.45-.1-.45-.15-1.15.1-1.4s1.05-.2,1.4-.05c.85.45,1.7,1.05,2.55,1.6,7.5,4.9,15,9.75,22.4,14.75,1.15.75,2.25,1.9,2.75,3.1,18.6,39.9,37.2,79.9,55.6,119.9,1.2,2.6,1.25,5.75,1.5,8.7.45,4.3.65,8.65,1,13.55h.05l.05-.05Z"/>
          </g>
        </g>
      </g>
    </g>
  </g>
</svg>