<?xml version="1.0" encoding="UTF-8"?>
<svg xmlns="http://www.w3.org/2000/svg" version="1.1" viewBox="0 0 1024 1024">
  <defs>
    <style>
      .cls-1 {
        fill: #fff;
      }
    </style>
  </defs>
  <!-- Generator: Adobe Illustrator 28.7.1, SVG Export Plug-In . SVG Version: 1.2.0 Build 142)  -->
  <g>
    <g id="Layer_4">
      <rect width="1024" height="1024" rx="204.6" ry="204.6"/>
      <g id="Layer_2-2" data-name="Layer_2">
        <g id="Layer_1-2" data-name="Layer_1">
          <g>
            <path class="cls-1" d="M796.1,458.4c13.4-5.7,26.8-8.7,40.9-8.8,36.7-.4,64.3,15.2,84.7,45.5,22.5,33.5,19.4,72.1-3.7,104.1-23.6,32.7-47.5,65.2-71.8,97.3-14.4,19.1-31,35.9-53.4,45.7-19.5,8.5-39.3,8.9-59,1.1-28.8-11.3-57.3-23.5-86.4-34.4-26.4-9.9-54.2-14.8-82-18.3-7.5-1-15.1-1.6-22.4-3.4-14.2-3.4-24.5-16.8-24.5-31.3v-360.8c0-24.9,22.7-48.2,47.5-47.6,60.8,1.3,116.8,17.9,164.7,56.8,32.6,26.4,52,61.3,61.5,101.9,3.9,16.8,5.3,33.8,3.8,52v.2h0Z"/>
            <path class="cls-1" d="M264.3,754.1c-15-.8-24.5-5.4-31.1-14.9-46.4-66.2-92.9-132.5-139.2-198.7-12-17.1-8.2-36.5,9-48.7,10-7.1,20.1-14.1,30.1-21.2,5.3-3.7,7.4-3.4,11.1,2,56.3,80.5,112.8,160.9,169.1,241.4,4.5,6.3,4.1,7.7-2.2,12.2-10,7.1-19.8,14.6-30.2,21-6,3.7-12.9,5.7-16.6,7.2h0ZM272.9,687.7c0-4.8-3.7-8.6-8.4-8.8-4.8-.2-9,3.9-9,8.7s3.6,8.5,8.4,8.7c5.1.2,8.9-3.6,9-8.6ZM221.8,614.5c0-5-4-8.7-9.1-8.5-4.8.2-8.4,3.9-8.3,8.7,0,4.8,3.8,8.6,8.5,8.7,4.8,0,8.9-4.1,8.9-8.9ZM179.4,609.3c-4.7,0-8.5,3.6-8.7,8.4-.2,5.1,3.4,8.9,8.5,9,4.8,0,8.7-3.5,8.9-8.3.2-4.6-4.1-9.1-8.7-9.1ZM170.8,541.3c-.1-5-4.2-8.5-9.5-8.2-4.9.2-8.3,4.1-7.9,9,.2,4.6,4.6,8.6,9,8.3s8.5-4.7,8.4-9.1h0ZM127.9,554c4.7,0,9.1-4.2,9-8.8,0-4.6-4-8.5-8.7-8.6-4.9,0-8.6,3.4-8.7,8.2-.2,5.1,3.4,9.1,8.4,9.2ZM239.2,691.1c0-4.5-4.4-8.7-8.7-8.7s-8.8,4.2-8.7,9.1c.2,4.9,3.8,8.3,8.9,8.2,4.9,0,8.6-3.8,8.5-8.6ZM187.3,586.6c5.1,0,8.6-3.3,8.7-8.3,0-5.1-3.8-9.2-8.7-9.1-4.5,0-8.6,4.4-8.7,8.8,0,4.8,3.7,8.5,8.6,8.5h.1ZM162.2,582c.1-5.1-3-8.7-8-8.9-5-.2-9.4,3.7-9.4,8.5s4,8.6,8.7,8.7c4.9,0,8.5-3.4,8.7-8.4h0ZM204,663.5c4.4.4,8.6-2.9,9.1-7.4.7-5.1-2.3-9.2-7-9.9-5.4-.7-9.9,2.6-10.3,7.8-.3,4.4,3.5,8.9,8,9.4h.1ZM247.2,651.2c0-4.9-3.6-8.6-8.5-8.7-5,0-8.9,3.8-8.8,8.8,0,4.9,3.8,8.5,8.7,8.4,4.9,0,8.6-3.6,8.6-8.6h0Z"/>
            <path class="cls-1" d="M427.2,274.9c6.2,7.9,12.5,15.8,18.7,23.8,4.5,5.7,8.3,12.1,13.4,17,8.5,8.2,9.6,18.3,10.2,29,1,17.8,2.6,35.7,4,53.5,1.2,16.4,2.3,32.8,3.6,49.2,1.3,17.6,2.7,35.3,4,53,1.2,16.4,2.4,32.8,3.6,49.2,1.3,17.6,2.7,35.3,4,53,.8,10.2,1.7,20.6,2.2,30.8.1,2.4-1.1,4.9-1.7,7.3-3.6,12.3-7.2,24.5-10.9,36.8-.4,1.3-1.7,2.4-2.6,3.6-.8-1.2-2-2.4-2.2-3.7-1.8-13.4-3.5-26.9-5.1-40.2-2.4-19.1-4.7-38.3-7-57.4-2-16.3-4-32.5-6.1-48.8-2.1-16.4-4.1-33-6.2-49.4-2-16.1-3.9-32.2-5.8-48.4-2.3-18.8-4.6-37.6-6.9-56.5-2-15.8-4.1-31.4-6.1-47.2-2-16.4-3.9-33-5.7-49.5-.2-1.5.3-3,.4-4.7.7-.1,1.3-.2,1.8-.3h.1Z"/>
            <path class="cls-1" d="M430.2,686.4c-.7-1.6-1.5-3.2-2-4.8-14.6-58.1-29-116.2-43.5-174.2-16.9-67.5-33.7-135.1-50.4-202.6-.7-2.5-.3-5.3-.4-7.9,2.3,1.5,4.8,2.7,6.6,4.6,12.2,12.1,24.3,24.5,36.4,36.5,3.4,3.3,5.4,6.7,6.3,11.4,9.4,48.6,18.9,97.1,28.5,145.6,8.5,43.1,16.6,86.3,25.9,129.1,3,14,.8,27.2-1.3,40.6-.9,5.7-1.8,11.3-2.9,17.1-.3,1.6-1,3.2-1.5,4.7h-1.8.1,0Z"/>
            <path class="cls-1" d="M248.7,332c7.6,6.1,15.2,12.1,22.7,18.2,8.6,7,17.2,13.8,25.7,20.9,1.7,1.5,3.4,3.8,4.1,6,29.4,89.6,58.6,179.1,87.6,268.9,1.7,5.4,1.1,11.7,1.1,17.6,0,8.7-.5,17.4-1.1,26-.1,1.8-1.4,3.7-2.2,5.5-1.2-1.5-2.9-2.9-3.6-4.7-30.7-79.6-61.2-159.3-91.8-239-14.4-37.5-28.8-74.9-43.2-112.4-.8-2-.8-4.2-1.2-6.4l1.8-.8h0Z"/>
            <path class="cls-1" d="M344,706.5s-.5,1.6-1.4,1.8c-.8.2-2.2-.7-2.9-1.5-.9-1.1-1.3-2.5-2.1-3.8-55.7-104.6-111.3-209.2-167-313.8-.5-1-1.2-1.8-1.4-2.9-.2-.9-.3-2.3.2-2.8s2.1-.4,2.8-.1c1.7.9,3.4,2.1,5.1,3.2,15,9.8,30,19.5,44.8,29.5,2.3,1.5,4.5,3.8,5.5,6.2,37.2,79.8,74.4,159.8,111.2,239.8,2.4,5.2,2.5,11.5,3,17.4.9,8.6,1.3,17.3,2,27.1h.1,0Z"/>
          </g>
          <g>
            <path class="cls-1" d="M796.1,458.4c13.4-5.7,26.8-8.7,40.9-8.8,36.7-.4,64.3,15.2,84.7,45.5,22.5,33.5,19.4,72.1-3.7,104.1-23.6,32.7-47.5,65.2-71.8,97.3-14.4,19.1-31,35.9-53.4,45.7-19.5,8.5-39.3,8.9-59,1.1-28.8-11.3-57.3-23.5-86.4-34.4-26.4-9.9-54.2-14.8-82-18.3-7.5-1-15.1-1.6-22.4-3.4-14.2-3.4-24.5-16.8-24.5-31.3v-360.8c0-24.9,22.7-48.2,47.5-47.6,60.8,1.3,116.8,17.9,164.7,56.8,32.6,26.4,52,61.3,61.5,101.9,3.9,16.8,5.3,33.8,3.8,52v.2h0Z"/>
            <path class="cls-1" d="M264.3,754.1c-15-.8-24.5-5.4-31.1-14.9-46.4-66.2-92.9-132.5-139.2-198.7-12-17.1-8.2-36.5,9-48.7,10-7.1,20.1-14.1,30.1-21.2,5.3-3.7,7.4-3.4,11.1,2,56.3,80.5,112.8,160.9,169.1,241.4,4.5,6.3,4.1,7.7-2.2,12.2-10,7.1-19.8,14.6-30.2,21-6,3.7-12.9,5.7-16.6,7.2h0ZM272.9,687.7c0-4.8-3.7-8.6-8.4-8.8-4.8-.2-9,3.9-9,8.7s3.6,8.5,8.4,8.7c5.1.2,8.9-3.6,9-8.6ZM221.8,614.5c0-5-4-8.7-9.1-8.5-4.8.2-8.4,3.9-8.3,8.7,0,4.8,3.8,8.6,8.5,8.7,4.8,0,8.9-4.1,8.9-8.9ZM179.4,609.3c-4.7,0-8.5,3.6-8.7,8.4-.2,5.1,3.4,8.9,8.5,9,4.8,0,8.7-3.5,8.9-8.3.2-4.6-4.1-9.1-8.7-9.1ZM170.8,541.3c-.1-5-4.2-8.5-9.5-8.2-4.9.2-8.3,4.1-7.9,9,.2,4.6,4.6,8.6,9,8.3s8.5-4.7,8.4-9.1h0ZM127.9,554c4.7,0,9.1-4.2,9-8.8,0-4.6-4-8.5-8.7-8.6-4.9,0-8.6,3.4-8.7,8.2-.2,5.1,3.4,9.1,8.4,9.2ZM239.2,691.1c0-4.5-4.4-8.7-8.7-8.7s-8.8,4.2-8.7,9.1c.2,4.9,3.8,8.3,8.9,8.2,4.9,0,8.6-3.8,8.5-8.6ZM187.3,586.6c5.1,0,8.6-3.3,8.7-8.3,0-5.1-3.8-9.2-8.7-9.1-4.5,0-8.6,4.4-8.7,8.8,0,4.8,3.7,8.5,8.6,8.5h.1ZM162.2,582c.1-5.1-3-8.7-8-8.9-5-.2-9.4,3.7-9.4,8.5s4,8.6,8.7,8.7c4.9,0,8.5-3.4,8.7-8.4h0ZM204,663.5c4.4.4,8.6-2.9,9.1-7.4.7-5.1-2.3-9.2-7-9.9-5.4-.7-9.9,2.6-10.3,7.8-.3,4.4,3.5,8.9,8,9.4h.1ZM247.2,651.2c0-4.9-3.6-8.6-8.5-8.7-5,0-8.9,3.8-8.8,8.8,0,4.9,3.8,8.5,8.7,8.4,4.9,0,8.6-3.6,8.6-8.6h0Z"/>
            <path class="cls-1" d="M427.2,274.9c6.2,7.9,12.5,15.8,18.7,23.8,4.5,5.7,8.3,12.1,13.4,17,8.5,8.2,9.6,18.3,10.2,29,1,17.8,2.6,35.7,4,53.5,1.2,16.4,2.3,32.8,3.6,49.2,1.3,17.6,2.7,35.3,4,53,1.2,16.4,2.4,32.8,3.6,49.2,1.3,17.6,2.7,35.3,4,53,.8,10.2,1.7,20.6,2.2,30.8.1,2.4-1.1,4.9-1.7,7.3-3.6,12.3-7.2,24.5-10.9,36.8-.4,1.3-1.7,2.4-2.6,3.6-.8-1.2-2-2.4-2.2-3.7-1.8-13.4-3.5-26.9-5.1-40.2-2.4-19.1-4.7-38.3-7-57.4-2-16.3-4-32.5-6.1-48.8-2.1-16.4-4.1-33-6.2-49.4-2-16.1-3.9-32.2-5.8-48.4-2.3-18.8-4.6-37.6-6.9-56.5-2-15.8-4.1-31.4-6.1-47.2-2-16.4-3.9-33-5.7-49.5-.2-1.5.3-3,.4-4.7.7-.1,1.3-.2,1.8-.3h.1Z"/>
            <path class="cls-1" d="M430.2,686.4c-.7-1.6-1.5-3.2-2-4.8-14.6-58.1-29-116.2-43.5-174.2-16.9-67.5-33.7-135.1-50.4-202.6-.7-2.5-.3-5.3-.4-7.9,2.3,1.5,4.8,2.7,6.6,4.6,12.2,12.1,24.3,24.5,36.4,36.5,3.4,3.3,5.4,6.7,6.3,11.4,9.4,48.6,18.9,97.1,28.5,145.6,8.5,43.1,16.6,86.3,25.9,129.1,3,14,.8,27.2-1.3,40.6-.9,5.7-1.8,11.3-2.9,17.1-.3,1.6-1,3.2-1.5,4.7h-1.8.1,0Z"/>
            <path class="cls-1" d="M248.7,332c7.6,6.1,15.2,12.1,22.7,18.2,8.6,7,17.2,13.8,25.7,20.9,1.7,1.5,3.4,3.8,4.1,6,29.4,89.6,58.6,179.1,87.6,268.9,1.7,5.4,1.1,11.7,1.1,17.6,0,8.7-.5,17.4-1.1,26-.1,1.8-1.4,3.7-2.2,5.5-1.2-1.5-2.9-2.9-3.6-4.7-30.7-79.6-61.2-159.3-91.8-239-14.4-37.5-28.8-74.9-43.2-112.4-.8-2-.8-4.2-1.2-6.4l1.8-.8h0Z"/>
            <path class="cls-1" d="M344,706.5s-.5,1.6-1.4,1.8c-.8.2-2.2-.7-2.9-1.5-.9-1.1-1.3-2.5-2.1-3.8-55.7-104.6-111.3-209.2-167-313.8-.5-1-1.2-1.8-1.4-2.9-.2-.9-.3-2.3.2-2.8s2.1-.4,2.8-.1c1.7.9,3.4,2.1,5.1,3.2,15,9.8,30,19.5,44.8,29.5,2.3,1.5,4.5,3.8,5.5,6.2,37.2,79.8,74.4,159.8,111.2,239.8,2.4,5.2,2.5,11.5,3,17.4.9,8.6,1.3,17.3,2,27.1h.1,0Z"/>
          </g>
        </g>
      </g>
    </g>
  </g>
</svg>