<?xml version="1.0" encoding="UTF-8"?>
<svg xmlns="http://www.w3.org/2000/svg" version="1.1" viewBox="0 0 1024 1024">
  <!-- Generator: Adobe Illustrator 28.7.1, SVG Export Plug-In . SVG Version: 1.2.0 Build 142)  -->
  <g>
    <g id="Layer_2">
      <g id="Layer_2-2" data-name="Layer_2">
        <g id="Layer_1-2" data-name="Layer_1">
          <g>
            <path d="M854.2,460.8c16.1-6.8,32.2-10.5,49.3-10.6,44.2-.5,77.4,18.3,102.1,54.8,27.1,40.4,23.3,86.9-4.5,125.4-28.4,39.4-57.3,78.5-86.5,117.3-17.3,23.1-37.3,43.2-64.3,55-23.5,10.2-47.3,10.7-71,1.3-34.7-13.6-69.1-28.3-104-41.4-31.8-11.9-65.3-17.8-98.8-22-9-1.2-18.2-2-27-4.1-17.2-4.1-29.5-20.2-29.5-37.7v-434.6c0-30,27.4-58,57.3-57.4,73.2,1.6,140.7,21.6,198.4,68.4,39.3,31.8,62.6,73.9,74,122.8,4.7,20.2,6.4,40.7,4.6,62.6v.3h0Z"/>
            <path d="M213.6,817c-18.1-.9-29.5-6.6-37.5-18-55.9-79.8-111.9-159.6-167.7-239.4-14.4-20.6-9.8-44,10.9-58.7,12.1-8.5,24.2-17,36.3-25.5,6.4-4.5,8.9-4.1,13.4,2.4,67.9,97,135.9,193.8,203.7,290.7,5.4,7.6,5,9.3-2.6,14.7-12.1,8.5-23.8,17.6-36.4,25.3-7.2,4.5-15.6,6.8-20,8.6h0ZM224,737.1c0-5.8-4.5-10.4-10.1-10.6-5.8-.3-10.9,4.7-10.9,10.5s4.3,10.2,10.1,10.5c6.2.3,10.7-4.3,10.9-10.4ZM162.4,648.9c0-6-4.8-10.5-11-10.2-5.8.3-10.1,4.7-10,10.5,0,5.8,4.6,10.4,10.2,10.5,5.8,0,10.7-5,10.7-10.7ZM111.3,642.6c-5.6,0-10.2,4.3-10.5,10.1-.3,6.2,4.1,10.7,10.2,10.9,5.8,0,10.5-4.2,10.7-10,.3-5.5-5-11-10.5-11ZM100.9,560.8c-.1-6-5.1-10.2-11.4-9.8-5.9.3-10,5-9.6,10.9.3,5.5,5.5,10.4,10.9,10,5.4-.4,10.2-5.6,10.1-11h0ZM49.3,576c5.6,0,11-5.1,10.9-10.6,0-5.5-4.8-10.2-10.5-10.4-5.9,0-10.4,4.1-10.5,9.8-.3,6.2,4.1,11,10.1,11.1ZM183.3,741.2c0-5.4-5.2-10.5-10.5-10.5s-10.6,5.1-10.5,11c.3,5.9,4.6,10,10.7,9.8,5.9,0,10.4-4.6,10.2-10.4ZM120.8,615.3c6.2,0,10.4-3.9,10.5-10,0-6.2-4.6-11.1-10.5-11-5.4,0-10.4,5.2-10.5,10.6,0,5.8,4.5,10.2,10.4,10.2h.1ZM90.6,609.8c.1-6.2-3.7-10.5-9.7-10.7-6-.3-11.3,4.5-11.3,10.2s4.8,10.4,10.5,10.5c5.9,0,10.2-4.1,10.5-10.1h0ZM141,707.9c5.2.5,10.4-3.5,11-8.9.8-6.2-2.8-11.1-8.4-11.9-6.6-.8-11.9,3.1-12.4,9.4-.4,5.2,4.2,10.7,9.7,11.3h.1ZM193,693.1c0-5.9-4.3-10.4-10.2-10.5-6,0-10.7,4.6-10.6,10.6,0,5.9,4.6,10.2,10.5,10.1,5.9,0,10.4-4.3,10.4-10.4h0Z"/>
            <path d="M409.9,239.7c7.5,9.6,15.1,19,22.5,28.7,5.4,6.8,10,14.5,16.1,20.4,10.2,9.8,11.5,22,12.3,35,1.2,21.5,3.1,43,4.8,64.5,1.4,19.8,2.8,39.6,4.3,59.2,1.6,21.2,3.3,42.6,4.8,63.8,1.4,19.8,2.9,39.6,4.3,59.2,1.6,21.2,3.3,42.6,4.8,63.8.9,12.3,2.1,24.8,2.6,37.1.1,2.9-1.3,5.9-2.1,8.8-4.3,14.8-8.6,29.5-13.1,44.3-.5,1.6-2.1,2.9-3.1,4.3-.9-1.4-2.4-2.9-2.6-4.5-2.2-16.1-4.2-32.4-6.2-48.5-2.9-23.1-5.6-46.1-8.4-69.2-2.4-19.7-4.8-39.2-7.3-58.8-2.5-19.8-5-39.7-7.5-59.5-2.4-19.4-4.7-38.8-6.9-58.3-2.8-22.7-5.5-45.3-8.3-68-2.4-19-5-37.9-7.3-56.9-2.4-19.8-4.7-39.7-6.8-59.6-.3-1.8.4-3.7.5-5.6.8-.1,1.6-.3,2.2-.4h.1Z"/>
            <path d="M413.4,735.5c-.8-2-1.8-3.8-2.4-5.8-17.6-70-35-139.9-52.4-209.9-20.3-81.4-40.6-162.7-60.7-244.1-.8-3-.4-6.4-.5-9.6,2.8,1.8,5.8,3.3,8,5.5,14.7,14.5,29.2,29.5,43.9,44,4.1,3.9,6.6,8.1,7.6,13.8,11.3,58.6,22.8,117,34.3,175.4,10.2,51.9,20,103.9,31.2,155.5,3.7,16.9.9,32.8-1.6,48.9-1,6.8-2.2,13.6-3.5,20.6-.4,2-1.2,3.8-1.8,5.6h-2.2.1,0Z"/>
            <path d="M194.9,308.5c9.2,7.3,18.3,14.5,27.4,21.9,10.4,8.4,20.7,16.6,30.9,25.2,2.1,1.8,4.1,4.6,5,7.2,35.4,108,70.6,215.8,105.5,323.9,2.1,6.6,1.3,14.2,1.3,21.2,0,10.5-.7,21-1.3,31.3-.1,2.2-1.7,4.5-2.6,6.7-1.4-1.8-3.5-3.5-4.3-5.6-36.9-95.9-73.8-192-110.6-287.9-17.3-45.2-34.7-90.3-52-135.3-.9-2.4-.9-5.1-1.4-7.7l2.2-.9h0Z"/>
            <path d="M309.7,759.7s-.7,2-1.7,2.2c-.9.3-2.6-.8-3.5-1.8-1-1.3-1.6-3-2.5-4.6-67.1-126-134-252-201.1-378-.7-1.2-1.4-2.2-1.7-3.5-.3-1-.4-2.8.3-3.4s2.5-.5,3.4-.1c2.1,1,4.1,2.5,6.2,3.8,18.1,11.8,36.2,23.5,54,35.5,2.8,1.8,5.4,4.6,6.7,7.5,44.8,96.2,89.6,192.5,133.9,288.9,2.9,6.3,3,13.9,3.7,21,1,10.4,1.6,20.8,2.4,32.6h.1,0Z"/>
          </g>
          <g>
            <path d="M854.2,460.8c16.1-6.8,32.2-10.5,49.3-10.6,44.2-.5,77.4,18.3,102.1,54.8,27.1,40.4,23.3,86.9-4.5,125.4-28.4,39.4-57.3,78.5-86.5,117.3-17.3,23.1-37.3,43.2-64.3,55-23.5,10.2-47.3,10.7-71,1.3-34.7-13.6-69.1-28.3-104-41.4-31.8-11.9-65.3-17.8-98.8-22-9-1.2-18.2-2-27-4.1-17.2-4.1-29.5-20.2-29.5-37.7v-434.6c0-30,27.4-58,57.3-57.4,73.2,1.6,140.7,21.6,198.4,68.4,39.3,31.8,62.6,73.9,74,122.8,4.7,20.2,6.4,40.7,4.6,62.6v.3h0Z"/>
            <path d="M213.6,817c-18.1-.9-29.5-6.6-37.5-18-55.9-79.8-111.9-159.6-167.7-239.4-14.4-20.6-9.8-44,10.9-58.7,12.1-8.5,24.2-17,36.3-25.5,6.4-4.5,8.9-4.1,13.4,2.4,67.9,97,135.9,193.8,203.7,290.7,5.4,7.6,5,9.3-2.6,14.7-12.1,8.5-23.8,17.6-36.4,25.3-7.2,4.5-15.6,6.8-20,8.6h0ZM224,737.1c0-5.8-4.5-10.4-10.1-10.6-5.8-.3-10.9,4.7-10.9,10.5s4.3,10.2,10.1,10.5c6.2.3,10.7-4.3,10.9-10.4ZM162.4,648.9c0-6-4.8-10.5-11-10.2-5.8.3-10.1,4.7-10,10.5,0,5.8,4.6,10.4,10.2,10.5,5.8,0,10.7-5,10.7-10.7ZM111.3,642.6c-5.6,0-10.2,4.3-10.5,10.1-.3,6.2,4.1,10.7,10.2,10.9,5.8,0,10.5-4.2,10.7-10,.3-5.5-5-11-10.5-11ZM100.9,560.8c-.1-6-5.1-10.2-11.4-9.8-5.9.3-10,5-9.6,10.9.3,5.5,5.5,10.4,10.9,10,5.4-.4,10.2-5.6,10.1-11h0ZM49.3,576c5.6,0,11-5.1,10.9-10.6,0-5.5-4.8-10.2-10.5-10.4-5.9,0-10.4,4.1-10.5,9.8-.3,6.2,4.1,11,10.1,11.1ZM183.3,741.2c0-5.4-5.2-10.5-10.5-10.5s-10.6,5.1-10.5,11c.3,5.9,4.6,10,10.7,9.8,5.9,0,10.4-4.6,10.2-10.4ZM120.8,615.3c6.2,0,10.4-3.9,10.5-10,0-6.2-4.6-11.1-10.5-11-5.4,0-10.4,5.2-10.5,10.6,0,5.8,4.5,10.2,10.4,10.2h.1ZM90.6,609.8c.1-6.2-3.7-10.5-9.7-10.7-6-.3-11.3,4.5-11.3,10.2s4.8,10.4,10.5,10.5c5.9,0,10.2-4.1,10.5-10.1h0ZM141,707.9c5.2.5,10.4-3.5,11-8.9.8-6.2-2.8-11.1-8.4-11.9-6.6-.8-11.9,3.1-12.4,9.4-.4,5.2,4.2,10.7,9.7,11.3h.1ZM193,693.1c0-5.9-4.3-10.4-10.2-10.5-6,0-10.7,4.6-10.6,10.6,0,5.9,4.6,10.2,10.5,10.1,5.9,0,10.4-4.3,10.4-10.4h0Z"/>
            <path d="M409.9,239.7c7.5,9.6,15.1,19,22.5,28.7,5.4,6.8,10,14.5,16.1,20.4,10.2,9.8,11.5,22,12.3,35,1.2,21.5,3.1,43,4.8,64.5,1.4,19.8,2.8,39.6,4.3,59.2,1.6,21.2,3.3,42.6,4.8,63.8,1.4,19.8,2.9,39.6,4.3,59.2,1.6,21.2,3.3,42.6,4.8,63.8.9,12.3,2.1,24.8,2.6,37.1.1,2.9-1.3,5.9-2.1,8.8-4.3,14.8-8.6,29.5-13.1,44.3-.5,1.6-2.1,2.9-3.1,4.3-.9-1.4-2.4-2.9-2.6-4.5-2.2-16.1-4.2-32.4-6.2-48.5-2.9-23.1-5.6-46.1-8.4-69.2-2.4-19.7-4.8-39.2-7.3-58.8-2.5-19.8-5-39.7-7.5-59.5-2.4-19.4-4.7-38.8-6.9-58.3-2.8-22.7-5.5-45.3-8.3-68-2.4-19-5-37.9-7.3-56.9-2.4-19.8-4.7-39.7-6.8-59.6-.3-1.8.4-3.7.5-5.6.8-.1,1.6-.3,2.2-.4h.1Z"/>
            <path d="M413.4,735.5c-.8-2-1.8-3.8-2.4-5.8-17.6-70-35-139.9-52.4-209.9-20.3-81.4-40.6-162.7-60.7-244.1-.8-3-.4-6.4-.5-9.6,2.8,1.8,5.8,3.3,8,5.5,14.7,14.5,29.2,29.5,43.9,44,4.1,3.9,6.6,8.1,7.6,13.8,11.3,58.6,22.8,117,34.3,175.4,10.2,51.9,20,103.9,31.2,155.5,3.7,16.9.9,32.8-1.6,48.9-1,6.8-2.2,13.6-3.5,20.6-.4,2-1.2,3.8-1.8,5.6h-2.2.1,0Z"/>
            <path d="M194.9,308.5c9.2,7.3,18.3,14.5,27.4,21.9,10.4,8.4,20.7,16.6,30.9,25.2,2.1,1.8,4.1,4.6,5,7.2,35.4,108,70.6,215.8,105.5,323.9,2.1,6.6,1.3,14.2,1.3,21.2,0,10.5-.7,21-1.3,31.3-.1,2.2-1.7,4.5-2.6,6.7-1.4-1.8-3.5-3.5-4.3-5.6-36.9-95.9-73.8-192-110.6-287.9-17.3-45.2-34.7-90.3-52-135.3-.9-2.4-.9-5.1-1.4-7.7l2.2-.9h0Z"/>
            <path d="M309.7,759.7s-.7,2-1.7,2.2c-.9.3-2.6-.8-3.5-1.8-1-1.3-1.6-3-2.5-4.6-67.1-126-134-252-201.1-378-.7-1.2-1.4-2.2-1.7-3.5-.3-1-.4-2.8.3-3.4s2.5-.5,3.4-.1c2.1,1,4.1,2.5,6.2,3.8,18.1,11.8,36.2,23.5,54,35.5,2.8,1.8,5.4,4.6,6.7,7.5,44.8,96.2,89.6,192.5,133.9,288.9,2.9,6.3,3,13.9,3.7,21,1,10.4,1.6,20.8,2.4,32.6h.1,0Z"/>
          </g>
        </g>
      </g>
    </g>
  </g>
</svg>