<?xml version="1.0" encoding="UTF-8"?>
<svg xmlns="http://www.w3.org/2000/svg" version="1.1" viewBox="0 0 1024 1024">
  <defs>
    <style>
      .cls-1 {
        fill: #fff;
      }
    </style>
  </defs>
  <!-- Generator: Adobe Illustrator 28.7.1, SVG Export Plug-In . SVG Version: 1.2.0 Build 142)  -->
  <g>
    <g id="Layer_3">
      <circle cx="512" cy="515" r="512"/>
      <g id="Layer_2-2" data-name="Layer_2">
        <g id="Layer_1-2" data-name="Layer_1">
          <g>
            <path class="cls-1" d="M773.1,473c12.3-5.2,24.6-8,37.6-8.1,33.7-.4,59.1,14,77.9,41.8,20.7,30.8,17.8,66.3-3.4,95.7-21.7,30.1-43.7,59.9-66,89.5-13.2,17.6-28.5,33-49.1,42-17.9,7.8-36.1,8.2-54.2,1-26.5-10.4-52.7-21.6-79.4-31.6-24.3-9.1-49.8-13.6-75.4-16.8-6.9-.9-13.9-1.5-20.6-3.1-13.1-3.1-22.5-15.4-22.5-28.8v-331.7c0-22.9,20.9-44.3,43.7-43.8,55.9,1.2,107.4,16.5,151.4,52.2,30,24.3,47.8,56.4,56.5,93.7,3.6,15.4,4.9,31.1,3.5,47.8v.2h0Z"/>
            <path class="cls-1" d="M284.2,744.9c-13.8-.7-22.5-5-28.6-13.7-42.7-60.9-85.4-121.8-128-182.7-11-15.7-7.5-33.6,8.3-44.8,9.2-6.5,18.5-13,27.7-19.5,4.9-3.4,6.8-3.1,10.2,1.8,51.8,74,103.7,147.9,155.5,221.9,4.1,5.8,3.8,7.1-2,11.2-9.2,6.5-18.2,13.4-27.8,19.3-5.5,3.4-11.9,5.2-15.3,6.6h0ZM292.1,683.9c0-4.4-3.4-7.9-7.7-8.1-4.4-.2-8.3,3.6-8.3,8s3.3,7.8,7.7,8c4.7.2,8.2-3.3,8.3-7.9ZM245.1,616.6c0-4.6-3.7-8-8.4-7.8-4.4.2-7.7,3.6-7.6,8,0,4.4,3.5,7.9,7.8,8,4.4,0,8.2-3.8,8.2-8.2ZM206.1,611.8c-4.3,0-7.8,3.3-8,7.7-.2,4.7,3.1,8.2,7.8,8.3,4.4,0,8-3.2,8.2-7.6.2-4.2-3.8-8.4-8-8.4ZM198.2,549.3c-.1-4.6-3.9-7.8-8.7-7.5-4.5.2-7.6,3.8-7.3,8.3.2,4.2,4.2,7.9,8.3,7.6s7.8-4.3,7.7-8.4h0ZM158.8,560.9c4.3,0,8.4-3.9,8.3-8.1,0-4.2-3.7-7.8-8-7.9-4.5,0-7.9,3.1-8,7.5-.2,4.7,3.1,8.4,7.7,8.5ZM261.1,687c0-4.1-4-8-8-8s-8.1,3.9-8,8.4c.2,4.5,3.5,7.6,8.2,7.5,4.5,0,7.9-3.5,7.8-7.9ZM213.4,590.9c4.7,0,7.9-3,8-7.6,0-4.7-3.5-8.5-8-8.4-4.1,0-7.9,4-8,8.1,0,4.4,3.4,7.8,7.9,7.8h.1ZM190.3,586.7c.1-4.7-2.8-8-7.4-8.2-4.6-.2-8.6,3.4-8.6,7.8s3.7,7.9,8,8c4.5,0,7.8-3.1,8-7.7h0ZM228.8,661.6c4,.4,7.9-2.7,8.4-6.8.6-4.7-2.1-8.5-6.4-9.1-5-.6-9.1,2.4-9.5,7.2-.3,4,3.2,8.2,7.4,8.6h.1ZM268.5,650.3c0-4.5-3.3-7.9-7.8-8-4.6,0-8.2,3.5-8.1,8.1,0,4.5,3.5,7.8,8,7.7,4.5,0,7.9-3.3,7.9-7.9h0Z"/>
            <path class="cls-1" d="M434,304.3c5.7,7.3,11.5,14.5,17.2,21.9,4.1,5.2,7.6,11.1,12.3,15.6,7.8,7.5,8.8,16.8,9.4,26.7.9,16.4,2.4,32.8,3.7,49.2,1.1,15.1,2.1,30.2,3.3,45.2,1.2,16.2,2.5,32.5,3.7,48.7,1.1,15.1,2.2,30.2,3.3,45.2,1.2,16.2,2.5,32.5,3.7,48.7.7,9.4,1.6,18.9,2,28.3.1,2.2-1,4.5-1.6,6.7-3.3,11.3-6.6,22.5-10,33.8-.4,1.2-1.6,2.2-2.4,3.3-.7-1.1-1.8-2.2-2-3.4-1.7-12.3-3.2-24.7-4.7-37-2.2-17.6-4.3-35.2-6.4-52.8-1.8-15-3.7-29.9-5.6-44.9-1.9-15.1-3.8-30.3-5.7-45.4-1.8-14.8-3.6-29.6-5.3-44.5-2.1-17.3-4.2-34.6-6.3-51.9-1.8-14.5-3.8-28.9-5.6-43.4-1.8-15.1-3.6-30.3-5.2-45.5-.2-1.4.3-2.8.4-4.3.6,0,1.2-.2,1.7-.3h.1Z"/>
            <path class="cls-1" d="M436.7,682.7c-.6-1.5-1.4-2.9-1.8-4.4-13.4-53.4-26.7-106.8-40-160.2-15.5-62.1-31-124.2-46.3-186.3-.6-2.3-.3-4.9-.4-7.3,2.1,1.4,4.4,2.5,6.1,4.2,11.2,11.1,22.3,22.5,33.5,33.6,3.1,3,5,6.2,5.8,10.5,8.6,44.7,17.4,89.3,26.2,133.9,7.8,39.6,15.3,79.3,23.8,118.7,2.8,12.9.7,25-1.2,37.3-.8,5.2-1.7,10.4-2.7,15.7-.3,1.5-.9,2.9-1.4,4.3h-1.7.1,0Z"/>
            <path class="cls-1" d="M269.9,356.8c7,5.6,14,11.1,20.9,16.7,7.9,6.4,15.8,12.7,23.6,19.2,1.6,1.4,3.1,3.5,3.8,5.5,27,82.4,53.9,164.7,80.5,247.2,1.6,5,1,10.8,1,16.2,0,8-.5,16-1,23.9-.1,1.7-1.3,3.4-2,5.1-1.1-1.4-2.7-2.7-3.3-4.3-28.2-73.2-56.3-146.5-84.4-219.7-13.2-34.5-26.5-68.9-39.7-103.3-.7-1.8-.7-3.9-1.1-5.9l1.7-.7h0Z"/>
            <path class="cls-1" d="M357.5,701.1s-.5,1.5-1.3,1.7c-.7.2-2-.6-2.7-1.4-.8-1-1.2-2.3-1.9-3.5-51.2-96.2-102.3-192.3-153.5-288.5-.5-.9-1.1-1.7-1.3-2.7-.2-.8-.3-2.1.2-2.6s1.9-.4,2.6,0c1.6.8,3.1,1.9,4.7,2.9,13.8,9,27.6,17.9,41.2,27.1,2.1,1.4,4.1,3.5,5.1,5.7,34.2,73.4,68.4,146.9,102.2,220.5,2.2,4.8,2.3,10.6,2.8,16,.8,7.9,1.2,15.9,1.8,24.9h.1,0Z"/>
          </g>
          <g>
            <path class="cls-1" d="M773.1,473c12.3-5.2,24.6-8,37.6-8.1,33.7-.4,59.1,14,77.9,41.8,20.7,30.8,17.8,66.3-3.4,95.7-21.7,30.1-43.7,59.9-66,89.5-13.2,17.6-28.5,33-49.1,42-17.9,7.8-36.1,8.2-54.2,1-26.5-10.4-52.7-21.6-79.4-31.6-24.3-9.1-49.8-13.6-75.4-16.8-6.9-.9-13.9-1.5-20.6-3.1-13.1-3.1-22.5-15.4-22.5-28.8v-331.7c0-22.9,20.9-44.3,43.7-43.8,55.9,1.2,107.4,16.5,151.4,52.2,30,24.3,47.8,56.4,56.5,93.7,3.6,15.4,4.9,31.1,3.5,47.8v.2h0Z"/>
            <path class="cls-1" d="M284.2,744.9c-13.8-.7-22.5-5-28.6-13.7-42.7-60.9-85.4-121.8-128-182.7-11-15.7-7.5-33.6,8.3-44.8,9.2-6.5,18.5-13,27.7-19.5,4.9-3.4,6.8-3.1,10.2,1.8,51.8,74,103.7,147.9,155.5,221.9,4.1,5.8,3.8,7.1-2,11.2-9.2,6.5-18.2,13.4-27.8,19.3-5.5,3.4-11.9,5.2-15.3,6.6h0ZM292.1,683.9c0-4.4-3.4-7.9-7.7-8.1-4.4-.2-8.3,3.6-8.3,8s3.3,7.8,7.7,8c4.7.2,8.2-3.3,8.3-7.9ZM245.1,616.6c0-4.6-3.7-8-8.4-7.8-4.4.2-7.7,3.6-7.6,8,0,4.4,3.5,7.9,7.8,8,4.4,0,8.2-3.8,8.2-8.2ZM206.1,611.8c-4.3,0-7.8,3.3-8,7.7-.2,4.7,3.1,8.2,7.8,8.3,4.4,0,8-3.2,8.2-7.6.2-4.2-3.8-8.4-8-8.4ZM198.2,549.3c-.1-4.6-3.9-7.8-8.7-7.5-4.5.2-7.6,3.8-7.3,8.3.2,4.2,4.2,7.9,8.3,7.6s7.8-4.3,7.7-8.4h0ZM158.8,560.9c4.3,0,8.4-3.9,8.3-8.1,0-4.2-3.7-7.8-8-7.9-4.5,0-7.9,3.1-8,7.5-.2,4.7,3.1,8.4,7.7,8.5ZM261.1,687c0-4.1-4-8-8-8s-8.1,3.9-8,8.4c.2,4.5,3.5,7.6,8.2,7.5,4.5,0,7.9-3.5,7.8-7.9ZM213.4,590.9c4.7,0,7.9-3,8-7.6,0-4.7-3.5-8.5-8-8.4-4.1,0-7.9,4-8,8.1,0,4.4,3.4,7.8,7.9,7.8h.1ZM190.3,586.7c.1-4.7-2.8-8-7.4-8.2-4.6-.2-8.6,3.4-8.6,7.8s3.7,7.9,8,8c4.5,0,7.8-3.1,8-7.7h0ZM228.8,661.6c4,.4,7.9-2.7,8.4-6.8.6-4.7-2.1-8.5-6.4-9.1-5-.6-9.1,2.4-9.5,7.2-.3,4,3.2,8.2,7.4,8.6h.1ZM268.5,650.3c0-4.5-3.3-7.9-7.8-8-4.6,0-8.2,3.5-8.1,8.1,0,4.5,3.5,7.8,8,7.7,4.5,0,7.9-3.3,7.9-7.9h0Z"/>
            <path class="cls-1" d="M434,304.3c5.7,7.3,11.5,14.5,17.2,21.9,4.1,5.2,7.6,11.1,12.3,15.6,7.8,7.5,8.8,16.8,9.4,26.7.9,16.4,2.4,32.8,3.7,49.2,1.1,15.1,2.1,30.2,3.3,45.2,1.2,16.2,2.5,32.5,3.7,48.7,1.1,15.1,2.2,30.2,3.3,45.2,1.2,16.2,2.5,32.5,3.7,48.7.7,9.4,1.6,18.9,2,28.3.1,2.2-1,4.5-1.6,6.7-3.3,11.3-6.6,22.5-10,33.8-.4,1.2-1.6,2.2-2.4,3.3-.7-1.1-1.8-2.2-2-3.4-1.7-12.3-3.2-24.7-4.7-37-2.2-17.6-4.3-35.2-6.4-52.8-1.8-15-3.7-29.9-5.6-44.9-1.9-15.1-3.8-30.3-5.7-45.4-1.8-14.8-3.6-29.6-5.3-44.5-2.1-17.3-4.2-34.6-6.3-51.9-1.8-14.5-3.8-28.9-5.6-43.4-1.8-15.1-3.6-30.3-5.2-45.5-.2-1.4.3-2.8.4-4.3.6,0,1.2-.2,1.7-.3h.1Z"/>
            <path class="cls-1" d="M436.7,682.7c-.6-1.5-1.4-2.9-1.8-4.4-13.4-53.4-26.7-106.8-40-160.2-15.5-62.1-31-124.2-46.3-186.3-.6-2.3-.3-4.9-.4-7.3,2.1,1.4,4.4,2.5,6.1,4.2,11.2,11.1,22.3,22.5,33.5,33.6,3.1,3,5,6.2,5.8,10.5,8.6,44.7,17.4,89.3,26.2,133.9,7.8,39.6,15.3,79.3,23.8,118.7,2.8,12.9.7,25-1.2,37.3-.8,5.2-1.7,10.4-2.7,15.7-.3,1.5-.9,2.9-1.4,4.3h-1.7.1,0Z"/>
            <path class="cls-1" d="M269.9,356.8c7,5.6,14,11.1,20.9,16.7,7.9,6.4,15.8,12.7,23.6,19.2,1.6,1.4,3.1,3.5,3.8,5.5,27,82.4,53.9,164.7,80.5,247.2,1.6,5,1,10.8,1,16.2,0,8-.5,16-1,23.9-.1,1.7-1.3,3.4-2,5.1-1.1-1.4-2.7-2.7-3.3-4.3-28.2-73.2-56.3-146.5-84.4-219.7-13.2-34.5-26.5-68.9-39.7-103.3-.7-1.8-.7-3.9-1.1-5.9l1.7-.7h0Z"/>
            <path class="cls-1" d="M357.5,701.1s-.5,1.5-1.3,1.7c-.7.2-2-.6-2.7-1.4-.8-1-1.2-2.3-1.9-3.5-51.2-96.2-102.3-192.3-153.5-288.5-.5-.9-1.1-1.7-1.3-2.7-.2-.8-.3-2.1.2-2.6s1.9-.4,2.6,0c1.6.8,3.1,1.9,4.7,2.9,13.8,9,27.6,17.9,41.2,27.1,2.1,1.4,4.1,3.5,5.1,5.7,34.2,73.4,68.4,146.9,102.2,220.5,2.2,4.8,2.3,10.6,2.8,16,.8,7.9,1.2,15.9,1.8,24.9h.1,0Z"/>
          </g>
        </g>
      </g>
    </g>
  </g>
</svg>