<?xml version="1.0" encoding="UTF-8"?>
<svg xmlns="http://www.w3.org/2000/svg" version="1.1" viewBox="0 0 3004.6 2538.5">
  <!-- Generator: Adobe Illustrator 28.7.1, SVG Export Plug-In . SVG Version: 1.2.0 Build 142)  -->
  <g>
    <g id="Layer_1">
      <text/>
    </g>
    <g id="Layer_5">
      <g>
        <path d="M2501.8,750.8c46.9-19.8,93.8-30.5,143.4-30.9,128.5-1.5,225.4,53.4,297.1,159.4,79,117.5,67.9,252.9-13,365-82.8,114.8-166.7,228.5-251.7,341.4-50.3,67.1-108.7,125.9-187.3,160.2-68.3,29.8-137.7,31.3-206.7,3.8-101.1-39.7-201-82.4-302.8-120.5-92.7-34.7-189.9-51.9-287.6-64.1-26.3-3.4-53-5.7-78.6-11.8-50-11.8-85.8-58.7-85.8-109.8V178.3c0-87.3,79.7-169,166.7-167.1,213.2,4.6,409.6,62.9,577.5,199.1,114.4,92.7,182.3,215.1,215.5,357.4,13.7,58.7,18.7,118.6,13.3,182.3v.8h0Z"/>
        <path d="M637,1787.9c-52.6-2.7-85.8-19.1-109.1-52.3-162.9-232.3-325.7-464.6-488.2-696.9-42-59.9-28.6-128.2,31.7-170.9,35.1-24.8,70.6-49.6,105.7-74.4,18.7-13,25.9-11.8,38.9,6.9,197.6,282.3,395.5,564.1,593.1,846.4,15.6,22.1,14.5,27.1-7.6,42.7-35.1,24.8-69.4,51.1-106,73.6-21,13-45.4,19.8-58.4,25.2h0v-.4ZM667.1,1555.2c0-16.8-13-30.1-29.4-30.9-16.8-.8-31.7,13.7-31.7,30.5s12.6,29.8,29.4,30.5c17.9.8,31.3-12.6,31.7-30.1ZM487.9,1298.5c0-17.5-14.1-30.5-32-29.8-16.8.8-29.4,13.7-29,30.5,0,16.8,13.3,30.1,29.8,30.5,16.8,0,31.3-14.5,31.3-31.3ZM339.1,1280.2c-16.4,0-29.8,12.6-30.5,29.4-.8,17.9,11.8,31.3,29.8,31.7,16.8,0,30.5-12.2,31.3-29,.8-16-14.5-32-30.5-32ZM309,1041.8c-.4-17.5-14.9-29.8-33.2-28.6-17.2.8-29,14.5-27.8,31.7.8,16,16,30.1,31.7,29,15.6-1.1,29.8-16.4,29.4-32h0ZM158.7,1086.1c16.4,0,32-14.9,31.7-30.9,0-16-14.1-29.8-30.5-30.1-17.2,0-30.1,11.8-30.5,28.6-.8,17.9,11.8,32,29.4,32.4ZM548.9,1567c0-15.6-15.3-30.5-30.5-30.5s-30.9,14.9-30.5,32c.8,17.2,13.3,29,31.3,28.6,17.2,0,30.1-13.3,29.8-30.1ZM367,1200.5c17.9,0,30.1-11.4,30.5-29,0-17.9-13.3-32.4-30.5-32-15.6,0-30.1,15.3-30.5,30.9,0,16.8,13,29.8,30.1,29.8h.4v.4ZM278.9,1184.5c.4-17.9-10.7-30.5-28.2-31.3-17.5-.8-32.8,13-32.8,29.8s14.1,30.1,30.5,30.5c17.2,0,29.8-11.8,30.5-29.4h0v.4ZM425.7,1470.2c15.3,1.5,30.1-10.3,32-25.9,2.3-17.9-8-32.4-24.4-34.7-19.1-2.3-34.7,9.2-36.2,27.5-1.1,15.3,12.2,31.3,28.2,32.8h.4v.4ZM577.1,1427.1c0-17.2-12.6-30.1-29.8-30.5-17.5,0-31.3,13.3-30.9,30.9,0,17.2,13.3,29.8,30.5,29.4,17.2,0,30.1-12.6,30.1-30.1h0v.4Z"/>
        <path d="M1208.4,107.3c21.7,27.8,43.9,55.3,65.6,83.5,15.6,19.8,29,42.3,46.9,59.5,29.8,28.6,33.6,64.1,35.9,101.8,3.4,62.6,9.2,125.1,14.1,187.7,4.2,57.6,8,115.2,12.6,172.4,4.6,61.8,9.5,124,14.1,185.8,4.2,57.6,8.4,115.2,12.6,172.4,4.6,61.8,9.5,124,14.1,185.8,2.7,35.9,6.1,72.1,7.6,107.9.4,8.4-3.8,17.2-6.1,25.6-12.6,43.1-25.2,85.8-38.1,128.9-1.5,4.6-6.1,8.4-9.2,12.6-2.7-4.2-6.9-8.4-7.6-13-6.5-46.9-12.2-94.2-17.9-141.1-8.4-67.1-16.4-134.3-24.4-201.4-6.9-57.2-14.1-114-21.4-171.3-7.2-57.6-14.5-115.6-21.7-173.2-6.9-56.5-13.7-112.9-20.2-169.7-8-66-16-132-24-198-6.9-55.3-14.5-110.2-21.4-165.5-6.9-57.6-13.7-115.6-19.8-173.5-.8-5.3,1.1-10.7,1.5-16.4,2.3-.4,4.6-.8,6.5-1.1h.4v.4Z"/>
        <path d="M1218.7,1550.6c-2.3-5.7-5.3-11.1-6.9-16.8-51.1-203.7-101.8-407.4-152.6-611-59.1-236.9-118.2-473.7-176.6-710.6-2.3-8.8-1.1-18.7-1.5-27.8,8,5.3,16.8,9.5,23.3,16,42.7,42.3,85.1,85.8,127.8,128.2,11.8,11.4,19.1,23.6,22.1,40,32.8,170.5,66.4,340.6,99.9,510.7,29.8,151,58.4,302.5,90.8,452.7,10.7,49.2,2.7,95.4-4.6,142.3-3.1,19.8-6.5,39.7-10.3,59.9-1.1,5.7-3.4,11.1-5.3,16.4h-6.5.4,0Z"/>
        <path d="M582.5,307.6c26.7,21.4,53.4,42.3,79.7,63.7,30.1,24.4,60.3,48.4,90,73.2,6.1,5.3,11.8,13.3,14.5,21,103,314.3,205.6,628.2,307,942.9,6.1,19.1,3.8,41.2,3.8,61.8,0,30.5-1.9,61-3.8,91.2-.4,6.5-5,13-7.6,19.5-4.2-5.3-10.3-10.3-12.6-16.4-107.6-279.2-214.7-558.8-321.9-838-50.3-131.6-101.1-262.8-151.4-394-2.7-6.9-2.7-14.9-4.2-22.5l6.5-2.7h0v.4Z"/>
        <path d="M916.6,1620.8s-1.9,5.7-5,6.5c-2.7.8-7.6-2.3-10.3-5.3-3.1-3.8-4.6-8.8-7.2-13.3-195.3-366.9-390.2-733.5-585.5-1100.4-1.9-3.4-4.2-6.5-5-10.3-.8-3.1-1.1-8,.8-9.9,1.9-1.9,7.2-1.5,9.9-.4,6.1,3.1,11.8,7.2,17.9,11.1,52.6,34.3,105.3,68.3,157.1,103.4,8,5.3,15.6,13.3,19.5,21.7,130.4,280,260.9,560.3,389.8,841,8.4,18.3,8.8,40.4,10.7,61,3.1,30.1,4.6,60.6,6.9,95h.4,0Z"/>
      </g>
      <g>
        <path d="M200.7,2133.7v296h-83.8v-296H1.2v-80.1h315.7v80.1h-116.2Z"/>
        <path d="M301.5,2357c0-11.7,2-22.1,6.1-31.3,4.1-9.2,9.6-17.1,16.7-23.6,7.1-6.5,15.3-11.8,24.7-15.9,9.4-4.1,19.5-7,30.5-8.8l62.1-9.5c7.1-1.1,12-3.2,14.9-6.4,2.8-3.2,4.2-7.1,4.2-11.7,0-7.8-3.3-14.5-9.8-20.2-6.5-5.7-16.2-8.5-28.9-8.5s-25,4-32.6,11.9c-7.6,8-11.8,16.9-12.5,26.8l-70-14.3c.7-9.5,3.5-19.4,8.5-29.7,4.9-10.3,12.1-19.6,21.5-28.1,9.4-8.5,21.1-15.6,35.3-21.2,14.1-5.7,30.9-8.5,50.4-8.5s39.3,2.7,54.1,8.2c14.9,5.5,27,12.9,36.3,22.3,9.4,9.4,16.1,20.2,20.2,32.6,4.1,12.4,6.1,25.3,6.1,38.7v128.9c0,10.3.4,19.3,1.3,27.1.9,7.8,1.5,12.4,1.9,13.8h-72.7c-.4-1.1-.9-4-1.6-8.8-.7-4.8-1.1-11.8-1.1-21-7.1,11.3-16.8,20.3-29.2,27.1-12.4,6.7-27.4,10.1-45.1,10.1s-27.4-2.2-38.7-6.6c-11.3-4.4-20.9-10.3-28.6-17.8-7.8-7.4-13.7-15.9-17.8-25.5-4.1-9.5-6.1-19.6-6.1-30.2ZM412.4,2378.8c6,0,11.9-.8,17.8-2.4,5.8-1.6,11-4.4,15.4-8.5,4.4-4.1,8-9.5,10.9-16.2,2.8-6.7,4.2-15.2,4.2-25.5v-11.7l-49.9,8c-8.5,1.4-15.6,4.3-21.2,8.8-5.7,4.4-8.5,11.2-8.5,20.4s2.4,13.4,7.2,18.8c4.8,5.5,12.8,8.2,24.1,8.2Z"/>
        <path d="M687.7,2429.7h-80.6v-263.7h78v30.2c3.5-6.4,8.1-11.8,13.8-16.4,5.7-4.6,11.8-8.4,18.3-11.4,6.5-3,13.4-5.3,20.7-6.9,7.2-1.6,14.2-2.4,21-2.4,16.6,0,30.9,2.7,43,8.2,12,5.5,22,13,30,22.5,8,9.5,13.8,20.7,17.5,33.4,3.7,12.7,5.6,26.4,5.6,40.8v165.5h-80.6v-151.7c0-13.1-3.4-24-10.3-32.6-6.9-8.7-17.8-13-32.6-13s-24.1,4.3-31.8,13c-7.8,8.7-11.7,19.7-11.7,33.2v151.2Z"/>
        <path d="M975.2,2424.4c2.8,12.7,9.2,23.3,19.1,31.6,9.9,8.3,22.5,12.5,37.7,12.5s36.1-5.2,47.7-15.6c11.7-10.4,17.5-27.7,17.5-51.7v-12.2c-5,7.1-13.2,13.8-24.7,20.2-11.5,6.4-26.8,9.5-45.9,9.5s-34-3.3-48.8-9.8c-14.9-6.5-27.8-15.6-38.7-27.1-11-11.5-19.5-25-25.7-40.6-6.2-15.6-9.3-32.5-9.3-50.9s3-33.8,9-49.3c6-15.6,14.4-29.3,25.2-41.1,10.8-11.8,23.7-21.2,38.7-28.1,15-6.9,31.6-10.3,49.6-10.3s20.1,1.1,28.4,3.2c8.3,2.1,15.5,4.8,21.5,8,6,3.2,11,6.7,14.9,10.6,3.9,3.9,6.7,7.6,8.5,11.1v-28.1h76.9v230.8c0,19.1-2.7,37.1-8.2,54.1-5.5,17-14,32-25.5,45.1-11.5,13.1-26.1,23.4-43.8,31-17.7,7.6-38.9,11.4-63.7,11.4s-36.3-2.7-51.7-8c-15.4-5.3-28.6-12.4-39.8-21.2-11.1-8.8-20.2-18.9-27.1-30.2-6.9-11.3-11.2-22.8-13-34.5l71.1-20.2ZM1041.5,2348.5c16.6,0,30.1-5.2,40.6-15.7,10.4-10.4,15.6-24.7,15.6-42.7s-1.5-16.9-4.5-24.1c-3-7.2-7.1-13.4-12.2-18.6-5.1-5.1-11.1-9-18-11.7-6.9-2.7-14.1-4-21.5-4s-14.6,1.3-21.5,4c-6.9,2.7-13,6.5-18.3,11.7-5.3,5.1-9.5,11.3-12.5,18.6-3,7.3-4.5,15.3-4.5,24.1,0,18,5.4,32.3,16.2,42.7,10.8,10.4,24.3,15.7,40.6,15.7Z"/>
        <path d="M1365.7,2158.1c19.8,0,38.2,3.4,55.2,10.3,17,6.9,31.7,16.5,44.3,28.9,12.5,12.4,22.5,27.1,29.7,44,7.2,17,10.9,35.7,10.9,56.2s-3.6,39.3-10.9,56.5c-7.3,17.2-17.2,31.9-29.7,44.3-12.6,12.4-27.3,22-44.3,28.9-17,6.9-35.4,10.3-55.2,10.3s-38.2-3.4-55.2-10.3c-17-6.9-31.7-16.5-44.3-28.9-12.6-12.4-22.5-27.1-29.7-44.3-7.3-17.1-10.9-36-10.9-56.5s3.6-39.3,10.9-56.2c7.2-17,17.1-31.6,29.7-44,12.5-12.4,27.3-22,44.3-28.9,17-6.9,35.4-10.3,55.2-10.3ZM1365.7,2363.4c7.8,0,15.2-1.3,22.3-4,7.1-2.7,13.3-6.7,18.8-12.2,5.5-5.5,9.9-12.3,13.3-20.4,3.4-8.1,5-17.9,5-29.2s-1.7-20.6-5-28.9c-3.4-8.3-7.8-15.1-13.3-20.4-5.5-5.3-11.8-9.3-18.8-11.9-7.1-2.7-14.5-4-22.3-4s-14.8,1.3-22,4c-7.3,2.7-13.6,6.6-19.1,11.9-5.5,5.3-9.9,12.1-13.3,20.4-3.4,8.3-5,18-5,28.9s1.7,20.6,5,28.9c3.4,8.3,7.8,15.2,13.3,20.7,5.5,5.5,11.8,9.5,19.1,12.2,7.2,2.7,14.6,4,22,4Z"/>
        <path d="M1736.5,2437.7c-27.2,0-52.7-4.7-76.4-14.1-23.7-9.4-44.3-22.5-61.8-39.5s-31.4-37.5-41.6-61.5c-10.3-24-15.4-50.7-15.4-80.1s5.2-56.1,15.6-80.4c10.4-24.2,24.5-44.9,42.2-62.1,17.7-17.2,38.3-30.5,61.8-40.1,23.5-9.5,48.4-14.3,74.5-14.3s52.7,4.1,73.2,12.2c20.5,8.1,37.8,18.5,52,31,14.1,12.6,25.2,26.3,33.2,41.1,8,14.9,13.5,29,16.7,42.4l-79,24.9c-1.4-6.4-4.2-13.6-8.2-21.8-4.1-8.1-9.8-15.8-17.2-23.1-7.4-7.2-16.9-13.3-28.4-18-11.5-4.8-25.6-7.2-42.2-7.2s-25.5,2.3-38.2,6.9c-12.7,4.6-24.2,11.6-34.5,21-10.3,9.4-18.6,21.3-24.9,35.8-6.4,14.5-9.5,31.7-9.5,51.5s3,33.4,9,47.2c6,13.8,14.1,25.5,24.1,35,10.1,9.5,21.6,16.8,34.5,21.8,12.9,5,26.4,7.4,40.6,7.4s30.2-2.4,41.9-7.2c11.7-4.8,21.4-10.8,29.2-18,7.8-7.2,13.9-14.9,18.3-23.1,4.4-8.1,7.5-15.6,9.3-22.3l80.1,22.8c-3.2,13.1-8.8,27.2-16.7,42.4-8,15.2-19.1,29.4-33.4,42.7-14.3,13.3-32.1,24.3-53.3,33.2-21.2,8.8-46.3,13.3-75.3,13.3Z"/>
        <path d="M1962,2429.7v-384.1h80.6v384.1h-80.6Z"/>
        <path d="M2234.6,2158.1c19.8,0,38.2,3.4,55.2,10.3,17,6.9,31.7,16.5,44.3,28.9,12.5,12.4,22.5,27.1,29.7,44,7.2,17,10.9,35.7,10.9,56.2s-3.6,39.3-10.9,56.5c-7.3,17.2-17.2,31.9-29.7,44.3-12.6,12.4-27.3,22-44.3,28.9-17,6.9-35.4,10.3-55.2,10.3s-38.2-3.4-55.2-10.3c-17-6.9-31.7-16.5-44.3-28.9-12.6-12.4-22.5-27.1-29.7-44.3-7.3-17.1-10.9-36-10.9-56.5s3.6-39.3,10.9-56.2c7.2-17,17.1-31.6,29.7-44,12.5-12.4,27.3-22,44.3-28.9,17-6.9,35.4-10.3,55.2-10.3ZM2234.6,2363.4c7.8,0,15.2-1.3,22.3-4,7.1-2.7,13.3-6.7,18.8-12.2,5.5-5.5,9.9-12.3,13.3-20.4,3.4-8.1,5-17.9,5-29.2s-1.7-20.6-5-28.9c-3.4-8.3-7.8-15.1-13.3-20.4-5.5-5.3-11.8-9.3-18.8-11.9-7.1-2.7-14.5-4-22.3-4s-14.8,1.3-22,4c-7.3,2.7-13.6,6.6-19.1,11.9-5.5,5.3-9.9,12.1-13.3,20.4-3.4,8.3-5,18-5,28.9s1.7,20.6,5,28.9c3.4,8.3,7.8,15.2,13.3,20.7,5.5,5.5,11.8,9.5,19.1,12.2,7.2,2.7,14.6,4,22,4Z"/>
        <path d="M2596.4,2429.7c-.7-2.5-1.2-6.6-1.6-12.5-.4-5.8-.5-10.5-.5-14.1-7.1,11.3-17.2,19.5-30.5,24.7-13.3,5.1-26.6,7.7-40.1,7.7s-30.2-2.7-42.7-8.2c-12.6-5.5-23.1-12.9-31.6-22.3-8.5-9.4-14.9-20.2-19.4-32.6-4.4-12.4-6.6-25.6-6.6-39.8v-166.6h80.6v149.6c0,12.7,3.4,23.5,10.3,32.4,6.9,8.8,17.6,13.3,32.1,13.3s24.1-4.2,32.1-12.5c8-8.3,11.9-19.2,11.9-32.6v-150.1h80.6v216.4c0,12,.3,22.4,1.1,31,.7,8.7,1.2,14.1,1.6,16.2h-77.5Z"/>
        <path d="M3001.2,2382.5c0,12,.3,22.2.8,30.5.5,8.3,1,13.9,1.3,16.7h-77.5c-.4-1.8-.8-5.1-1.3-10.1-.5-4.9-.8-10.1-.8-15.4-6,9.2-15.3,16.7-27.9,22.5-12.6,5.8-26.8,8.8-42.7,8.8s-36.1-3.4-52-10.3c-15.9-6.9-29.7-16.4-41.4-28.6-11.7-12.2-20.8-26.8-27.3-43.8-6.5-17-9.8-35.5-9.8-55.7s3.2-37.6,9.5-54.4c6.4-16.8,15.2-31.4,26.5-43.8,11.3-12.4,24.8-22,40.3-28.9,15.6-6.9,32.7-10.3,51.5-10.3s21,1,29.2,2.9c8.1,1.9,15,4.2,20.7,6.9,5.7,2.7,10.2,5.6,13.5,8.8,3.4,3.2,5.9,6,7.7,8.5v-141.1h79.6v336.9ZM2803.9,2297.6c0,11,1.6,20.5,4.8,28.6,3.2,8.1,7.5,14.9,13,20.4,5.5,5.5,11.8,9.6,19.1,12.5,7.2,2.8,14.8,4.2,22.5,4.2s15.3-1.4,22.5-4.2c7.2-2.8,13.6-7,19.1-12.5s9.8-12.3,13-20.4c3.2-8.1,4.8-17.7,4.8-28.6s-1.6-20.5-4.8-28.6c-3.2-8.1-7.5-14.9-13-20.4-5.5-5.5-11.9-9.5-19.1-12.2-7.3-2.7-14.8-4-22.5-4s-15.3,1.3-22.5,4c-7.3,2.7-13.6,6.7-19.1,12.2s-9.8,12.3-13,20.4c-3.2,8.1-4.8,17.7-4.8,28.6Z"/>
      </g>
    </g>
  </g>
</svg>