<svg width="29" height="23" viewBox="0 0 29 23" fill="none" xmlns="http://www.w3.org/2000/svg">
  <path
    d="M4.81445 13.2349H7.67578C7.93945 13.2349 8.18359 13.0786 8.25195 12.7954L8.71094 10.7642H8.36914L9.91211 17.9126C10.0391 18.4985 10.9961 18.4985 11.084 17.9028L12.2754 10.0708L13.6719 22.1509C13.7598 22.8735 14.7949 22.8638 14.8535 22.1509L16.1328 7.74658L17.4219 22.1411C17.4805 22.8735 18.5156 22.8735 18.6035 22.1411L20 10.0708L21.1914 17.9126C21.2793 18.5083 22.2363 18.5083 22.3633 17.9126L23.8965 10.813L23.5254 10.8228L24.0234 12.7954C24.1113 13.1177 24.3359 13.2349 24.5996 13.2349H27.373C27.7637 13.2349 28.0664 12.9321 28.0664 12.5513C28.0664 12.1704 27.7637 11.8579 27.373 11.8579H25.0293L24.248 8.83057C24.0723 8.17627 23.2227 8.17627 23.0762 8.83057L21.875 14.5337L20.498 5.53955C20.3906 4.82666 19.4043 4.84619 19.3164 5.54932L18.0859 16.2231L16.7383 0.98877C16.6699 0.256348 15.6055 0.256348 15.5371 0.98877L14.1895 16.2231L12.959 5.54932C12.8711 4.82666 11.8848 4.82666 11.7773 5.53955L10.4004 14.5337L9.19922 8.83057C9.0625 8.2251 8.19336 8.2251 8.02734 8.83057L7.24609 11.8579H4.81445C4.41406 11.8579 4.11133 12.1704 4.11133 12.5513C4.11133 12.9321 4.41406 13.2349 4.81445 13.2349Z"
    fill="white" fill-opacity="0.85" />
  <path
    d="M6.29883 22.688C9.72656 22.688 12.5879 19.8267 12.5879 16.3892C12.5879 12.9419 9.74609 10.1001 6.29883 10.1001C2.8418 10.1001 0 12.9419 0 16.3892C0 19.856 2.83203 22.688 6.29883 22.688Z"
    fill="#1E1E1E" />
  <path
    d="M6.29883 21.3501C8.98438 21.3501 11.2598 19.104 11.2598 16.3892C11.2598 13.6743 9.01367 11.4282 6.29883 11.4282C3.57422 11.4282 1.33789 13.6743 1.33789 16.3892C1.33789 19.1235 3.57422 21.3501 6.29883 21.3501Z"
    fill="white" fill-opacity="0.85" />
  <path
    d="M6.29883 19.4946C5.92773 19.4946 5.69336 19.2603 5.69336 18.8989V16.9946H3.78906C3.42773 16.9946 3.19336 16.7603 3.19336 16.3892C3.19336 16.0278 3.42773 15.7935 3.78906 15.7935H5.69336V13.8892C5.69336 13.5278 5.92773 13.2837 6.29883 13.2837C6.66016 13.2837 6.89453 13.5278 6.89453 13.8892V15.7935H8.79883C9.16016 15.7935 9.4043 16.0278 9.4043 16.3892C9.4043 16.7603 9.16016 16.9946 8.79883 16.9946H6.89453V18.8989C6.89453 19.2603 6.66016 19.4946 6.29883 19.4946Z"
    fill="#1E1E1E" />
</svg>